<?xml version="1.0" encoding="UTF-8" standalone="no"?>
<!DOCTYPE svg PUBLIC "-//W3C//DTD SVG 1.1//EN"
 "http://www.w3.org/Graphics/SVG/1.1/DTD/svg11.dtd">
<!-- Generated by graphviz version 12.2.0 (20241103.1931)
 -->
<!-- Pages: 1 -->
<svg width="317pt" height="387pt"
 viewBox="0.00 0.00 317.38 386.50" xmlns="http://www.w3.org/2000/svg" xmlns:xlink="http://www.w3.org/1999/xlink">
<g id="graph0" class="graph" transform="scale(1 1) rotate(0) translate(4 382.5)">
<polygon fill="white" stroke="none" points="-4,4 -4,-382.5 313.38,-382.5 313.38,4 -4,4"/>
<!-- Start -->
<g id="node1" class="node">
<title>Start</title>
<ellipse fill="none" stroke="black" cx="178.75" cy="-360.5" rx="28.32" ry="18"/>
<text text-anchor="middle" x="178.75" y="-355.45" font-family="Times,serif" font-size="14.00">Start</text>
</g>
<!-- CheckPersons -->
<g id="node2" class="node">
<title>CheckPersons</title>
<polygon fill="none" stroke="black" points="178.75,-305.5 48.22,-287.5 178.75,-269.5 309.28,-287.5 178.75,-305.5"/>
<text text-anchor="middle" x="178.75" y="-282.45" font-family="Times,serif" font-size="14.00">Is persons &gt; helmets?</text>
</g>
<!-- Start&#45;&gt;CheckPersons -->
<g id="edge1" class="edge">
<title>Start&#45;&gt;CheckPersons</title>
<path fill="none" stroke="black" d="M178.75,-342.31C178.75,-334.73 178.75,-325.6 178.75,-317.04"/>
<polygon fill="black" stroke="black" points="182.25,-317.04 178.75,-307.04 175.25,-317.04 182.25,-317.04"/>
</g>
<!-- PrintWarning -->
<g id="node3" class="node">
<title>PrintWarning</title>
<polygon fill="none" stroke="black" points="196,-217 55.5,-217 55.5,-181 196,-181 196,-217"/>
<text text-anchor="middle" x="125.75" y="-193.95" font-family="Times,serif" font-size="14.00">Print warning message</text>
</g>
<!-- CheckPersons&#45;&gt;PrintWarning -->
<g id="edge2" class="edge">
<title>CheckPersons&#45;&gt;PrintWarning</title>
<path fill="none" stroke="black" d="M169.03,-270.63C161.5,-258.35 150.91,-241.06 142.08,-226.66"/>
<polygon fill="black" stroke="black" points="145.32,-225.24 137.11,-218.54 139.35,-228.89 145.32,-225.24"/>
<text text-anchor="middle" x="167.12" y="-238.2" font-family="Times,serif" font-size="14.00">Yes</text>
</g>
<!-- PrintCompliance -->
<g id="node5" class="node">
<title>PrintCompliance</title>
<polygon fill="none" stroke="black" points="309.38,-163 150.12,-163 150.12,-127 309.38,-127 309.38,-163"/>
<text text-anchor="middle" x="229.75" y="-139.95" font-family="Times,serif" font-size="14.00">Print compliance message</text>
</g>
<!-- CheckPersons&#45;&gt;PrintCompliance -->
<g id="edge5" class="edge">
<title>CheckPersons&#45;&gt;PrintCompliance</title>
<path fill="none" stroke="black" d="M185.04,-269.96C190.36,-255.9 198.16,-235.16 204.75,-217 209.89,-202.84 215.47,-187.05 220.05,-173.95"/>
<polygon fill="black" stroke="black" points="223.29,-175.27 223.28,-164.68 216.68,-172.97 223.29,-175.27"/>
<text text-anchor="middle" x="205.97" y="-238.2" font-family="Times,serif" font-size="14.00">No</text>
</g>
<!-- CallAnalysisResults -->
<g id="node4" class="node">
<title>CallAnalysisResults</title>
<polygon fill="none" stroke="black" points="203.5,-109 0,-109 0,-73 203.5,-73 203.5,-109"/>
<text text-anchor="middle" x="101.75" y="-85.95" font-family="Times,serif" font-size="14.00">Call analysis_results_for_QDEQ()</text>
</g>
<!-- PrintWarning&#45;&gt;CallAnalysisResults -->
<g id="edge3" class="edge">
<title>PrintWarning&#45;&gt;CallAnalysisResults</title>
<path fill="none" stroke="black" d="M121.89,-180.97C118.21,-164.69 112.58,-139.82 108.21,-120.52"/>
<polygon fill="black" stroke="black" points="111.63,-119.8 106.01,-110.82 104.81,-121.34 111.63,-119.8"/>
</g>
<!-- End -->
<g id="node6" class="node">
<title>End</title>
<ellipse fill="none" stroke="black" cx="166.75" cy="-18" rx="27" ry="18"/>
<text text-anchor="middle" x="166.75" y="-12.95" font-family="Times,serif" font-size="14.00">End</text>
</g>
<!-- CallAnalysisResults&#45;&gt;End -->
<g id="edge4" class="edge">
<title>CallAnalysisResults&#45;&gt;End</title>
<path fill="none" stroke="black" d="M117.48,-72.81C125.97,-63.54 136.56,-51.98 145.74,-41.95"/>
<polygon fill="black" stroke="black" points="148.16,-44.49 152.33,-34.75 143,-39.76 148.16,-44.49"/>
</g>
<!-- PrintCompliance&#45;&gt;End -->
<g id="edge6" class="edge">
<title>PrintCompliance&#45;&gt;End</title>
<path fill="none" stroke="black" d="M227.89,-126.58C225.78,-111.7 221.42,-90.06 212.75,-73 206.91,-61.52 198.17,-50.41 189.87,-41.28"/>
<polygon fill="black" stroke="black" points="192.63,-39.1 183.2,-34.28 187.56,-43.93 192.63,-39.1"/>
</g>
</g>
</svg>
