<?xml version="1.0" encoding="UTF-8" standalone="no"?>
<!DOCTYPE svg PUBLIC "-//W3C//DTD SVG 1.1//EN"
 "http://www.w3.org/Graphics/SVG/1.1/DTD/svg11.dtd">
<!-- Generated by graphviz version 12.2.0 (20241103.1931)
 -->
<!-- Pages: 1 -->
<svg width="334pt" height="679pt"
 viewBox="0.00 0.00 334.20 678.50" xmlns="http://www.w3.org/2000/svg" xmlns:xlink="http://www.w3.org/1999/xlink">
<g id="graph0" class="graph" transform="scale(1 1) rotate(0) translate(4 674.5)">
<polygon fill="white" stroke="none" points="-4,4 -4,-674.5 330.2,-674.5 330.2,4 -4,4"/>
<!-- Start -->
<g id="node1" class="node">
<title>Start</title>
<ellipse fill="none" stroke="black" cx="163.1" cy="-652.5" rx="28.32" ry="18"/>
<text text-anchor="middle" x="163.1" y="-647.45" font-family="Times,serif" font-size="14.00">Start</text>
</g>
<!-- UploadImage -->
<g id="node2" class="node">
<title>UploadImage</title>
<polygon fill="none" stroke="black" points="240.1,-597.5 86.1,-597.5 86.1,-561.5 240.1,-561.5 240.1,-597.5"/>
<text text-anchor="middle" x="163.1" y="-574.45" font-family="Times,serif" font-size="14.00">Call upload_drone_img()</text>
</g>
<!-- Start&#45;&gt;UploadImage -->
<g id="edge1" class="edge">
<title>Start&#45;&gt;UploadImage</title>
<path fill="none" stroke="black" d="M163.1,-634.31C163.1,-626.73 163.1,-617.6 163.1,-609.04"/>
<polygon fill="black" stroke="black" points="166.6,-609.04 163.1,-599.04 159.6,-609.04 166.6,-609.04"/>
</g>
<!-- UploadSuccess -->
<g id="node3" class="node">
<title>UploadSuccess</title>
<polygon fill="none" stroke="black" points="163.1,-524.5 0,-506.5 163.1,-488.5 326.2,-506.5 163.1,-524.5"/>
<text text-anchor="middle" x="163.1" y="-501.45" font-family="Times,serif" font-size="14.00">Is image upload successful?</text>
</g>
<!-- UploadImage&#45;&gt;UploadSuccess -->
<g id="edge2" class="edge">
<title>UploadImage&#45;&gt;UploadSuccess</title>
<path fill="none" stroke="black" d="M163.1,-561.31C163.1,-553.73 163.1,-544.6 163.1,-536.04"/>
<polygon fill="black" stroke="black" points="166.6,-536.04 163.1,-526.04 159.6,-536.04 166.6,-536.04"/>
</g>
<!-- GetTimestamp -->
<g id="node4" class="node">
<title>GetTimestamp</title>
<polygon fill="none" stroke="black" points="182.6,-436 43.6,-436 43.6,-400 182.6,-400 182.6,-436"/>
<text text-anchor="middle" x="113.1" y="-412.95" font-family="Times,serif" font-size="14.00">Get current timestamp</text>
</g>
<!-- UploadSuccess&#45;&gt;GetTimestamp -->
<g id="edge3" class="edge">
<title>UploadSuccess&#45;&gt;GetTimestamp</title>
<path fill="none" stroke="black" d="M153.69,-489.23C146.68,-477.1 136.95,-460.26 128.77,-446.11"/>
<polygon fill="black" stroke="black" points="131.94,-444.6 123.9,-437.69 125.88,-448.1 131.94,-444.6"/>
<text text-anchor="middle" x="152.7" y="-457.2" font-family="Times,serif" font-size="14.00">Yes</text>
</g>
<!-- PrintFailure -->
<g id="node9" class="node">
<title>PrintFailure</title>
<polygon fill="none" stroke="black" points="303.1,-382 131.1,-382 131.1,-346 303.1,-346 303.1,-382"/>
<text text-anchor="middle" x="217.1" y="-358.95" font-family="Times,serif" font-size="14.00">Print upload failure message</text>
</g>
<!-- UploadSuccess&#45;&gt;PrintFailure -->
<g id="edge9" class="edge">
<title>UploadSuccess&#45;&gt;PrintFailure</title>
<path fill="none" stroke="black" d="M170.28,-489.04C176.31,-475.02 185.06,-454.31 192.1,-436 197.5,-421.94 203.11,-406.15 207.64,-393.04"/>
<polygon fill="black" stroke="black" points="210.89,-394.34 210.82,-383.75 204.27,-392.08 210.89,-394.34"/>
<text text-anchor="middle" x="192.72" y="-457.2" font-family="Times,serif" font-size="14.00">No</text>
</g>
<!-- ExtractUAVStatus -->
<g id="node5" class="node">
<title>ExtractUAVStatus</title>
<polygon fill="none" stroke="black" points="193.6,-328 12.6,-328 12.6,-292 193.6,-292 193.6,-328"/>
<text text-anchor="middle" x="103.1" y="-304.95" font-family="Times,serif" font-size="14.00">Extract data from UAV_status</text>
</g>
<!-- GetTimestamp&#45;&gt;ExtractUAVStatus -->
<g id="edge4" class="edge">
<title>GetTimestamp&#45;&gt;ExtractUAVStatus</title>
<path fill="none" stroke="black" d="M111.49,-399.97C109.96,-383.76 107.63,-359.06 105.81,-339.79"/>
<polygon fill="black" stroke="black" points="109.3,-339.47 104.88,-329.85 102.33,-340.13 109.3,-339.47"/>
</g>
<!-- PrepareJSON -->
<g id="node6" class="node">
<title>PrepareJSON</title>
<polygon fill="none" stroke="black" points="165.85,-255 46.35,-255 46.35,-219 165.85,-219 165.85,-255"/>
<text text-anchor="middle" x="106.1" y="-231.95" font-family="Times,serif" font-size="14.00">Prepare JSON data</text>
</g>
<!-- ExtractUAVStatus&#45;&gt;PrepareJSON -->
<g id="edge5" class="edge">
<title>ExtractUAVStatus&#45;&gt;PrepareJSON</title>
<path fill="none" stroke="black" d="M103.82,-291.81C104.15,-284.14 104.54,-274.89 104.9,-266.24"/>
<polygon fill="black" stroke="black" points="108.39,-266.68 105.31,-256.54 101.4,-266.38 108.39,-266.68"/>
</g>
<!-- POSTData -->
<g id="node7" class="node">
<title>POSTData</title>
<polygon fill="none" stroke="black" points="177.85,-182 52.35,-182 52.35,-146 177.85,-146 177.85,-182"/>
<text text-anchor="middle" x="115.1" y="-158.95" font-family="Times,serif" font-size="14.00">POST data to server</text>
</g>
<!-- PrepareJSON&#45;&gt;POSTData -->
<g id="edge6" class="edge">
<title>PrepareJSON&#45;&gt;POSTData</title>
<path fill="none" stroke="black" d="M108.28,-218.81C109.25,-211.14 110.42,-201.89 111.52,-193.24"/>
<polygon fill="black" stroke="black" points="114.96,-193.89 112.75,-183.53 108.02,-193.01 114.96,-193.89"/>
</g>
<!-- PrintResponse -->
<g id="node8" class="node">
<title>PrintResponse</title>
<polygon fill="none" stroke="black" points="194.1,-109 64.1,-109 64.1,-73 194.1,-73 194.1,-109"/>
<text text-anchor="middle" x="129.1" y="-85.95" font-family="Times,serif" font-size="14.00">Print server response</text>
</g>
<!-- POSTData&#45;&gt;PrintResponse -->
<g id="edge7" class="edge">
<title>POSTData&#45;&gt;PrintResponse</title>
<path fill="none" stroke="black" d="M118.49,-145.81C120,-138.14 121.82,-128.89 123.53,-120.24"/>
<polygon fill="black" stroke="black" points="126.95,-121 125.45,-110.51 120.08,-119.65 126.95,-121"/>
</g>
<!-- End -->
<g id="node10" class="node">
<title>End</title>
<ellipse fill="none" stroke="black" cx="175.1" cy="-18" rx="27" ry="18"/>
<text text-anchor="middle" x="175.1" y="-12.95" font-family="Times,serif" font-size="14.00">End</text>
</g>
<!-- PrintResponse&#45;&gt;End -->
<g id="edge8" class="edge">
<title>PrintResponse&#45;&gt;End</title>
<path fill="none" stroke="black" d="M140.23,-72.81C145.7,-64.37 152.4,-54.03 158.46,-44.68"/>
<polygon fill="black" stroke="black" points="161.37,-46.62 163.87,-36.33 155.5,-42.82 161.37,-46.62"/>
</g>
<!-- PrintFailure&#45;&gt;End -->
<g id="edge10" class="edge">
<title>PrintFailure&#45;&gt;End</title>
<path fill="none" stroke="black" d="M218.65,-345.62C220.12,-327.69 222.1,-298.92 222.1,-274 222.1,-274 222.1,-274 222.1,-90 222.1,-71.38 210.72,-53.9 199.17,-40.94"/>
<polygon fill="black" stroke="black" points="201.78,-38.61 192.32,-33.83 196.73,-43.46 201.78,-38.61"/>
</g>
</g>
</svg>
