<?xml version="1.0" encoding="UTF-8" standalone="no"?>
<!DOCTYPE svg PUBLIC "-//W3C//DTD SVG 1.1//EN"
 "http://www.w3.org/Graphics/SVG/1.1/DTD/svg11.dtd">
<!-- Generated by graphviz version 12.2.0 (20241103.1931)
 -->
<!-- Pages: 1 -->
<svg width="222pt" height="720pt"
 viewBox="0.00 0.00 221.55 720.00" xmlns="http://www.w3.org/2000/svg" xmlns:xlink="http://www.w3.org/1999/xlink">
<g id="graph0" class="graph" transform="scale(0.427241 0.427241) rotate(0) translate(4 1681.23)">
<polygon fill="white" stroke="none" points="-4,4 -4,-1681.23 514.57,-1681.23 514.57,4 -4,4"/>
<!-- Start -->
<g id="node1" class="node">
<title>Start</title>
<ellipse fill="none" stroke="black" cx="365.56" cy="-1659.23" rx="28.32" ry="18"/>
<text text-anchor="middle" x="365.56" y="-1654.18" font-family="Times,serif" font-size="14.00">Start</text>
</g>
<!-- InitPaths -->
<g id="node2" class="node">
<title>InitPaths</title>
<polygon fill="none" stroke="black" points="457.19,-1604.23 273.94,-1604.23 273.94,-1568.23 457.19,-1568.23 457.19,-1604.23"/>
<text text-anchor="middle" x="365.56" y="-1581.18" font-family="Times,serif" font-size="14.00">Initialize paths and parameters</text>
</g>
<!-- Start&#45;&gt;InitPaths -->
<g id="edge1" class="edge">
<title>Start&#45;&gt;InitPaths</title>
<path fill="none" stroke="black" d="M365.56,-1641.04C365.56,-1633.46 365.56,-1624.33 365.56,-1615.77"/>
<polygon fill="black" stroke="black" points="369.06,-1615.77 365.56,-1605.77 362.06,-1615.77 369.06,-1615.77"/>
</g>
<!-- InitCounts -->
<g id="node3" class="node">
<title>InitCounts</title>
<polygon fill="none" stroke="black" points="449.31,-1531.23 281.81,-1531.23 281.81,-1495.23 449.31,-1495.23 449.31,-1531.23"/>
<text text-anchor="middle" x="365.56" y="-1508.18" font-family="Times,serif" font-size="14.00">Initialize counting variables</text>
</g>
<!-- InitPaths&#45;&gt;InitCounts -->
<g id="edge2" class="edge">
<title>InitPaths&#45;&gt;InitCounts</title>
<path fill="none" stroke="black" d="M365.56,-1568.04C365.56,-1560.46 365.56,-1551.33 365.56,-1542.77"/>
<polygon fill="black" stroke="black" points="369.06,-1542.77 365.56,-1532.77 362.06,-1542.77 369.06,-1542.77"/>
</g>
<!-- LoadModel -->
<g id="node4" class="node">
<title>LoadModel</title>
<polygon fill="none" stroke="black" points="426.81,-1458.23 304.31,-1458.23 304.31,-1422.23 426.81,-1422.23 426.81,-1458.23"/>
<text text-anchor="middle" x="365.56" y="-1435.18" font-family="Times,serif" font-size="14.00">Load YOLO model</text>
</g>
<!-- InitCounts&#45;&gt;LoadModel -->
<g id="edge3" class="edge">
<title>InitCounts&#45;&gt;LoadModel</title>
<path fill="none" stroke="black" d="M365.56,-1495.04C365.56,-1487.46 365.56,-1478.33 365.56,-1469.77"/>
<polygon fill="black" stroke="black" points="369.06,-1469.77 365.56,-1459.77 362.06,-1469.77 369.06,-1469.77"/>
</g>
<!-- ProcessStream -->
<g id="node5" class="node">
<title>ProcessStream</title>
<polygon fill="none" stroke="black" points="431.31,-1385.23 299.81,-1385.23 299.81,-1349.23 431.31,-1349.23 431.31,-1385.23"/>
<text text-anchor="middle" x="365.56" y="-1362.18" font-family="Times,serif" font-size="14.00">Process video stream</text>
</g>
<!-- LoadModel&#45;&gt;ProcessStream -->
<g id="edge4" class="edge">
<title>LoadModel&#45;&gt;ProcessStream</title>
<path fill="none" stroke="black" d="M365.56,-1422.04C365.56,-1414.46 365.56,-1405.33 365.56,-1396.77"/>
<polygon fill="black" stroke="black" points="369.06,-1396.77 365.56,-1386.77 362.06,-1396.77 369.06,-1396.77"/>
</g>
<!-- ForEachResult -->
<g id="node6" class="node">
<title>ForEachResult</title>
<polygon fill="none" stroke="black" points="365.56,-1312.23 220.56,-1294.23 365.56,-1276.23 510.57,-1294.23 365.56,-1312.23"/>
<text text-anchor="middle" x="365.56" y="-1289.18" font-family="Times,serif" font-size="14.00">For each result in results</text>
</g>
<!-- ProcessStream&#45;&gt;ForEachResult -->
<g id="edge5" class="edge">
<title>ProcessStream&#45;&gt;ForEachResult</title>
<path fill="none" stroke="black" d="M365.56,-1349.04C365.56,-1341.46 365.56,-1332.33 365.56,-1323.77"/>
<polygon fill="black" stroke="black" points="369.06,-1323.77 365.56,-1313.77 362.06,-1323.77 369.06,-1323.77"/>
</g>
<!-- IncrementFrame -->
<g id="node7" class="node">
<title>IncrementFrame</title>
<polygon fill="none" stroke="black" points="270.69,-1223.73 126.44,-1223.73 126.44,-1187.73 270.69,-1187.73 270.69,-1223.73"/>
<text text-anchor="middle" x="198.56" y="-1200.68" font-family="Times,serif" font-size="14.00">Increment frame_count</text>
</g>
<!-- ForEachResult&#45;&gt;IncrementFrame -->
<g id="edge6" class="edge">
<title>ForEachResult&#45;&gt;IncrementFrame</title>
<path fill="none" stroke="black" d="M338.36,-1279.14C312.29,-1265.63 272.5,-1245.03 242.04,-1229.25"/>
<polygon fill="black" stroke="black" points="243.93,-1226.29 233.44,-1224.79 240.71,-1232.5 243.93,-1226.29"/>
<text text-anchor="middle" x="307.15" y="-1244.93" font-family="Times,serif" font-size="14.00">Yes</text>
</g>
<!-- CallVehicleAlarmLast -->
<g id="node23" class="node">
<title>CallVehicleAlarmLast</title>
<polygon fill="none" stroke="black" points="442.56,-1223.73 288.56,-1223.73 288.56,-1187.73 442.56,-1187.73 442.56,-1223.73"/>
<text text-anchor="middle" x="365.56" y="-1200.68" font-family="Times,serif" font-size="14.00">Call vehicle_alarm_last()</text>
</g>
<!-- ForEachResult&#45;&gt;CallVehicleAlarmLast -->
<g id="edge26" class="edge">
<title>ForEachResult&#45;&gt;CallVehicleAlarmLast</title>
<path fill="none" stroke="black" d="M365.56,-1276.14C365.56,-1264.49 365.56,-1248.78 365.56,-1235.25"/>
<polygon fill="black" stroke="black" points="369.06,-1235.59 365.56,-1225.59 362.06,-1235.59 369.06,-1235.59"/>
<text text-anchor="middle" x="373.81" y="-1244.93" font-family="Times,serif" font-size="14.00">No</text>
</g>
<!-- ExtractData -->
<g id="node8" class="node">
<title>ExtractData</title>
<polygon fill="none" stroke="black" points="283.44,-1150.73 113.69,-1150.73 113.69,-1114.73 283.44,-1114.73 283.44,-1150.73"/>
<text text-anchor="middle" x="198.56" y="-1127.68" font-family="Times,serif" font-size="14.00">Extract boxes, masks, probs</text>
</g>
<!-- IncrementFrame&#45;&gt;ExtractData -->
<g id="edge7" class="edge">
<title>IncrementFrame&#45;&gt;ExtractData</title>
<path fill="none" stroke="black" d="M198.56,-1187.54C198.56,-1179.96 198.56,-1170.83 198.56,-1162.27"/>
<polygon fill="black" stroke="black" points="202.06,-1162.27 198.56,-1152.27 195.06,-1162.27 202.06,-1162.27"/>
</g>
<!-- GenerateImage -->
<g id="node9" class="node">
<title>GenerateImage</title>
<polygon fill="none" stroke="black" points="325.44,-1077.73 71.69,-1077.73 71.69,-1041.73 325.44,-1041.73 325.44,-1077.73"/>
<text text-anchor="middle" x="198.56" y="-1054.68" font-family="Times,serif" font-size="14.00">Generate image array with detection results</text>
</g>
<!-- ExtractData&#45;&gt;GenerateImage -->
<g id="edge8" class="edge">
<title>ExtractData&#45;&gt;GenerateImage</title>
<path fill="none" stroke="black" d="M198.56,-1114.54C198.56,-1106.96 198.56,-1097.83 198.56,-1089.27"/>
<polygon fill="black" stroke="black" points="202.06,-1089.27 198.56,-1079.27 195.06,-1089.27 202.06,-1089.27"/>
</g>
<!-- TrackingIDs -->
<g id="node10" class="node">
<title>TrackingIDs</title>
<polygon fill="none" stroke="black" points="198.56,-1004.73 38.36,-986.73 198.56,-968.73 358.77,-986.73 198.56,-1004.73"/>
<text text-anchor="middle" x="198.56" y="-981.68" font-family="Times,serif" font-size="14.00">Are tracking IDs available?</text>
</g>
<!-- GenerateImage&#45;&gt;TrackingIDs -->
<g id="edge9" class="edge">
<title>GenerateImage&#45;&gt;TrackingIDs</title>
<path fill="none" stroke="black" d="M198.56,-1041.54C198.56,-1033.96 198.56,-1024.83 198.56,-1016.27"/>
<polygon fill="black" stroke="black" points="202.06,-1016.27 198.56,-1006.27 195.06,-1016.27 202.06,-1016.27"/>
</g>
<!-- ProcessFrame -->
<g id="node11" class="node">
<title>ProcessFrame</title>
<polygon fill="none" stroke="black" points="263.94,-916.23 133.19,-916.23 133.19,-880.23 263.94,-880.23 263.94,-916.23"/>
<text text-anchor="middle" x="198.56" y="-893.18" font-family="Times,serif" font-size="14.00">Call process_frame()</text>
</g>
<!-- TrackingIDs&#45;&gt;ProcessFrame -->
<g id="edge10" class="edge">
<title>TrackingIDs&#45;&gt;ProcessFrame</title>
<path fill="none" stroke="black" d="M198.56,-968.64C198.56,-956.99 198.56,-941.28 198.56,-927.75"/>
<polygon fill="black" stroke="black" points="202.06,-928.09 198.56,-918.09 195.06,-928.09 202.06,-928.09"/>
<text text-anchor="middle" x="208.69" y="-937.43" font-family="Times,serif" font-size="14.00">Yes</text>
</g>
<!-- EndFor -->
<g id="node22" class="node">
<title>EndFor</title>
<ellipse fill="none" stroke="black" cx="388.56" cy="-41.12" rx="41.12" ry="41.12"/>
<text text-anchor="middle" x="388.56" y="-36.07" font-family="Times,serif" font-size="14.00">End For</text>
</g>
<!-- TrackingIDs&#45;&gt;EndFor -->
<g id="edge11" class="edge">
<title>TrackingIDs&#45;&gt;EndFor</title>
<path fill="none" stroke="black" d="M258.8,-975.02C326.05,-961.31 425.56,-934.97 425.56,-899.23 425.56,-899.23 425.56,-899.23 425.56,-136.23 425.56,-119.54 420.46,-102.27 414.05,-87.15"/>
<polygon fill="black" stroke="black" points="417.41,-86.08 410.07,-78.43 411.04,-88.98 417.41,-86.08"/>
<text text-anchor="middle" x="433.81" y="-512.68" font-family="Times,serif" font-size="14.00">No</text>
</g>
<!-- GenerateStrings -->
<g id="node12" class="node">
<title>GenerateStrings</title>
<polygon fill="none" stroke="black" points="331.06,-843.23 66.06,-843.23 66.06,-807.23 331.06,-807.23 331.06,-843.23"/>
<text text-anchor="middle" x="198.56" y="-820.18" font-family="Times,serif" font-size="14.00">Generate class IDs and object location strings</text>
</g>
<!-- ProcessFrame&#45;&gt;GenerateStrings -->
<g id="edge12" class="edge">
<title>ProcessFrame&#45;&gt;GenerateStrings</title>
<path fill="none" stroke="black" d="M198.56,-880.04C198.56,-872.46 198.56,-863.33 198.56,-854.77"/>
<polygon fill="black" stroke="black" points="202.06,-854.77 198.56,-844.77 195.06,-854.77 202.06,-854.77"/>
</g>
<!-- VehicleAlarm -->
<g id="node13" class="node">
<title>VehicleAlarm</title>
<polygon fill="none" stroke="black" points="198.56,-770.23 0,-752.23 198.56,-734.23 397.13,-752.23 198.56,-770.23"/>
<text text-anchor="middle" x="198.56" y="-747.18" font-family="Times,serif" font-size="14.00">Has vehicle alarm interval passed?</text>
</g>
<!-- GenerateStrings&#45;&gt;VehicleAlarm -->
<g id="edge13" class="edge">
<title>GenerateStrings&#45;&gt;VehicleAlarm</title>
<path fill="none" stroke="black" d="M198.56,-807.04C198.56,-799.46 198.56,-790.33 198.56,-781.77"/>
<polygon fill="black" stroke="black" points="202.06,-781.77 198.56,-771.77 195.06,-781.77 202.06,-781.77"/>
</g>
<!-- SaveFrame -->
<g id="node14" class="node">
<title>SaveFrame</title>
<polygon fill="none" stroke="black" points="215.69,-681.73 95.44,-681.73 95.44,-645.73 215.69,-645.73 215.69,-681.73"/>
<text text-anchor="middle" x="155.56" y="-658.68" font-family="Times,serif" font-size="14.00">Save current frame</text>
</g>
<!-- VehicleAlarm&#45;&gt;SaveFrame -->
<g id="edge14" class="edge">
<title>VehicleAlarm&#45;&gt;SaveFrame</title>
<path fill="none" stroke="black" d="M190.27,-734.55C184.28,-722.5 176.06,-705.96 169.12,-692"/>
<polygon fill="black" stroke="black" points="172.38,-690.7 164.8,-683.3 166.11,-693.82 172.38,-690.7"/>
<text text-anchor="middle" x="191.04" y="-702.93" font-family="Times,serif" font-size="14.00">Yes</text>
</g>
<!-- UpdateCounts -->
<g id="node17" class="node">
<title>UpdateCounts</title>
<polygon fill="none" stroke="black" points="319.69,-462.73 97.44,-462.73 97.44,-426.73 319.69,-426.73 319.69,-462.73"/>
<text text-anchor="middle" x="208.56" y="-439.68" font-family="Times,serif" font-size="14.00">Update num_person and num_helmet</text>
</g>
<!-- VehicleAlarm&#45;&gt;UpdateCounts -->
<g id="edge18" class="edge">
<title>VehicleAlarm&#45;&gt;UpdateCounts</title>
<path fill="none" stroke="black" d="M214.02,-735.15C228.05,-718.79 246.56,-692.04 246.56,-664.73 246.56,-664.73 246.56,-664.73 246.56,-516.73 246.56,-500.69 238.93,-484.76 230.5,-472.07"/>
<polygon fill="black" stroke="black" points="233.58,-470.36 224.9,-464.28 227.9,-474.44 233.58,-470.36"/>
<text text-anchor="middle" x="254.81" y="-585.68" font-family="Times,serif" font-size="14.00">No</text>
</g>
<!-- CallVehicleAlarm -->
<g id="node15" class="node">
<title>CallVehicleAlarm</title>
<polygon fill="none" stroke="black" points="210.81,-608.73 82.31,-608.73 82.31,-572.73 210.81,-572.73 210.81,-608.73"/>
<text text-anchor="middle" x="146.56" y="-585.68" font-family="Times,serif" font-size="14.00">Call vehicle_alarm()</text>
</g>
<!-- SaveFrame&#45;&gt;CallVehicleAlarm -->
<g id="edge15" class="edge">
<title>SaveFrame&#45;&gt;CallVehicleAlarm</title>
<path fill="none" stroke="black" d="M153.39,-645.54C152.41,-637.87 151.24,-628.62 150.14,-619.97"/>
<polygon fill="black" stroke="black" points="153.64,-619.74 148.91,-610.26 146.7,-620.62 153.64,-619.74"/>
</g>
<!-- ResetTimer -->
<g id="node16" class="node">
<title>ResetTimer</title>
<polygon fill="none" stroke="black" points="210.06,-535.73 131.06,-535.73 131.06,-499.73 210.06,-499.73 210.06,-535.73"/>
<text text-anchor="middle" x="170.56" y="-512.68" font-family="Times,serif" font-size="14.00">Reset timer</text>
</g>
<!-- CallVehicleAlarm&#45;&gt;ResetTimer -->
<g id="edge16" class="edge">
<title>CallVehicleAlarm&#45;&gt;ResetTimer</title>
<path fill="none" stroke="black" d="M152.37,-572.54C155.03,-564.69 158.24,-555.2 161.22,-546.39"/>
<polygon fill="black" stroke="black" points="164.44,-547.79 164.32,-537.19 157.81,-545.55 164.44,-547.79"/>
</g>
<!-- ResetTimer&#45;&gt;UpdateCounts -->
<g id="edge17" class="edge">
<title>ResetTimer&#45;&gt;UpdateCounts</title>
<path fill="none" stroke="black" d="M179.76,-499.54C184.06,-491.52 189.27,-481.78 194.08,-472.8"/>
<polygon fill="black" stroke="black" points="197.1,-474.56 198.74,-464.09 190.93,-471.26 197.1,-474.56"/>
</g>
<!-- AlarmClock -->
<g id="node18" class="node">
<title>AlarmClock</title>
<polygon fill="none" stroke="black" points="208.56,-389.73 19.41,-371.73 208.56,-353.73 397.72,-371.73 208.56,-389.73"/>
<text text-anchor="middle" x="208.56" y="-366.68" font-family="Times,serif" font-size="14.00">Is frame_count &gt;= alarm_clock?</text>
</g>
<!-- UpdateCounts&#45;&gt;AlarmClock -->
<g id="edge19" class="edge">
<title>UpdateCounts&#45;&gt;AlarmClock</title>
<path fill="none" stroke="black" d="M208.56,-426.54C208.56,-418.96 208.56,-409.83 208.56,-401.27"/>
<polygon fill="black" stroke="black" points="212.06,-401.27 208.56,-391.27 205.06,-401.27 212.06,-401.27"/>
</g>
<!-- SaveAnnotatedFrame -->
<g id="node19" class="node">
<title>SaveAnnotatedFrame</title>
<polygon fill="none" stroke="black" points="331.56,-301.23 159.56,-301.23 159.56,-265.23 331.56,-265.23 331.56,-301.23"/>
<text text-anchor="middle" x="245.56" y="-278.18" font-family="Times,serif" font-size="14.00">Save frame with annotations</text>
</g>
<!-- AlarmClock&#45;&gt;SaveAnnotatedFrame -->
<g id="edge20" class="edge">
<title>AlarmClock&#45;&gt;SaveAnnotatedFrame</title>
<path fill="none" stroke="black" d="M215.7,-354.05C220.8,-342.12 227.79,-325.79 233.72,-311.91"/>
<polygon fill="black" stroke="black" points="236.89,-313.41 237.6,-302.84 230.45,-310.66 236.89,-313.41"/>
<text text-anchor="middle" x="240.5" y="-322.43" font-family="Times,serif" font-size="14.00">Yes</text>
</g>
<!-- AlarmClock&#45;&gt;EndFor -->
<g id="edge24" class="edge">
<title>AlarmClock&#45;&gt;EndFor</title>
<path fill="none" stroke="black" d="M278.79,-359.93C320.98,-348.99 366.56,-327.23 366.56,-284.23 366.56,-284.23 366.56,-284.23 366.56,-136.23 366.56,-121.53 369.14,-105.88 372.53,-91.64"/>
<polygon fill="black" stroke="black" points="375.9,-92.59 375.01,-82.03 369.12,-90.84 375.9,-92.59"/>
<text text-anchor="middle" x="374.81" y="-205.18" font-family="Times,serif" font-size="14.00">No</text>
</g>
<!-- CallCapAlarm -->
<g id="node20" class="node">
<title>CallCapAlarm</title>
<polygon fill="none" stroke="black" points="324.69,-228.23 216.44,-228.23 216.44,-192.23 324.69,-192.23 324.69,-228.23"/>
<text text-anchor="middle" x="270.56" y="-205.18" font-family="Times,serif" font-size="14.00">Call cap_alarm()</text>
</g>
<!-- SaveAnnotatedFrame&#45;&gt;CallCapAlarm -->
<g id="edge21" class="edge">
<title>SaveAnnotatedFrame&#45;&gt;CallCapAlarm</title>
<path fill="none" stroke="black" d="M251.62,-265.04C254.38,-257.19 257.72,-247.7 260.83,-238.89"/>
<polygon fill="black" stroke="black" points="264.05,-240.28 264.07,-229.69 257.44,-237.96 264.05,-240.28"/>
</g>
<!-- ResetFrameCount -->
<g id="node21" class="node">
<title>ResetFrameCount</title>
<polygon fill="none" stroke="black" points="337.94,-155.23 219.19,-155.23 219.19,-119.23 337.94,-119.23 337.94,-155.23"/>
<text text-anchor="middle" x="278.56" y="-132.18" font-family="Times,serif" font-size="14.00">Reset frame_count</text>
</g>
<!-- CallCapAlarm&#45;&gt;ResetFrameCount -->
<g id="edge22" class="edge">
<title>CallCapAlarm&#45;&gt;ResetFrameCount</title>
<path fill="none" stroke="black" d="M272.5,-192.04C273.37,-184.37 274.41,-175.12 275.38,-166.47"/>
<polygon fill="black" stroke="black" points="278.83,-167.09 276.48,-156.76 271.88,-166.31 278.83,-167.09"/>
</g>
<!-- ResetFrameCount&#45;&gt;EndFor -->
<g id="edge23" class="edge">
<title>ResetFrameCount&#45;&gt;EndFor</title>
<path fill="none" stroke="black" d="M299,-118.75C313.07,-106.71 332.22,-90.32 349.2,-75.79"/>
<polygon fill="black" stroke="black" points="351.38,-78.54 356.7,-69.38 346.82,-73.22 351.38,-78.54"/>
</g>
<!-- EndFor&#45;&gt;ForEachResult -->
<g id="edge25" class="edge">
<title>EndFor&#45;&gt;ForEachResult</title>
<path fill="none" stroke="black" d="M423.34,-63.53C445.69,-80.23 470.56,-105.67 470.56,-136.23 470.56,-1206.73 470.56,-1206.73 470.56,-1206.73 470.56,-1239.12 440.42,-1261.64 412.44,-1275.56"/>
<polygon fill="black" stroke="black" points="411.24,-1272.26 403.66,-1279.66 414.2,-1278.6 411.24,-1272.26"/>
</g>
<!-- End -->
<g id="node24" class="node">
<title>End</title>
<ellipse fill="none" stroke="black" cx="365.56" cy="-1132.73" rx="27" ry="18"/>
<text text-anchor="middle" x="365.56" y="-1127.68" font-family="Times,serif" font-size="14.00">End</text>
</g>
<!-- CallVehicleAlarmLast&#45;&gt;End -->
<g id="edge27" class="edge">
<title>CallVehicleAlarmLast&#45;&gt;End</title>
<path fill="none" stroke="black" d="M365.56,-1187.54C365.56,-1179.96 365.56,-1170.83 365.56,-1162.27"/>
<polygon fill="black" stroke="black" points="369.06,-1162.27 365.56,-1152.27 362.06,-1162.27 369.06,-1162.27"/>
</g>
</g>
</svg>
