<?xml version="1.0" encoding="UTF-8" standalone="no"?>
<!DOCTYPE svg PUBLIC "-//W3C//DTD SVG 1.1//EN"
 "http://www.w3.org/Graphics/SVG/1.1/DTD/svg11.dtd">
<!-- Generated by graphviz version 12.2.0 (20241103.1931)
 -->
<!-- Pages: 1 -->
<svg width="334pt" height="720pt"
 viewBox="0.00 0.00 334.15 720.00" xmlns="http://www.w3.org/2000/svg" xmlns:xlink="http://www.w3.org/1999/xlink">
<g id="graph0" class="graph" transform="scale(0.548266 0.548266) rotate(0) translate(4 1309.23)">
<polygon fill="white" stroke="none" points="-4,4 -4,-1309.23 605.46,-1309.23 605.46,4 -4,4"/>
<!-- Start -->
<g id="node1" class="node">
<title>Start</title>
<ellipse fill="none" stroke="black" cx="489.03" cy="-1287.23" rx="28.32" ry="18"/>
<text text-anchor="middle" x="489.03" y="-1282.18" font-family="Times,serif" font-size="14.00">Start</text>
</g>
<!-- CopyImages -->
<g id="node2" class="node">
<title>CopyImages</title>
<polygon fill="none" stroke="black" points="597.53,-1232.23 380.53,-1232.23 380.53,-1196.23 597.53,-1196.23 597.53,-1232.23"/>
<text text-anchor="middle" x="489.03" y="-1209.18" font-family="Times,serif" font-size="14.00">Copy img to draw_img and out_img</text>
</g>
<!-- Start&#45;&gt;CopyImages -->
<g id="edge1" class="edge">
<title>Start&#45;&gt;CopyImages</title>
<path fill="none" stroke="black" d="M489.03,-1269.04C489.03,-1261.46 489.03,-1252.33 489.03,-1243.77"/>
<polygon fill="black" stroke="black" points="492.53,-1243.77 489.03,-1233.77 485.53,-1243.77 492.53,-1243.77"/>
</g>
<!-- InitColors -->
<g id="node3" class="node">
<title>InitColors</title>
<polygon fill="none" stroke="black" points="565.28,-1159.23 412.78,-1159.23 412.78,-1123.23 565.28,-1123.23 565.28,-1159.23"/>
<text text-anchor="middle" x="489.03" y="-1136.18" font-family="Times,serif" font-size="14.00">Initialize color mappings</text>
</g>
<!-- CopyImages&#45;&gt;InitColors -->
<g id="edge2" class="edge">
<title>CopyImages&#45;&gt;InitColors</title>
<path fill="none" stroke="black" d="M489.03,-1196.04C489.03,-1188.46 489.03,-1179.33 489.03,-1170.77"/>
<polygon fill="black" stroke="black" points="492.53,-1170.77 489.03,-1160.77 485.53,-1170.77 492.53,-1170.77"/>
</g>
<!-- ForEachDetection -->
<g id="node4" class="node">
<title>ForEachDetection</title>
<polygon fill="none" stroke="black" points="489.03,-1086.23 376.6,-1068.23 489.03,-1050.23 601.46,-1068.23 489.03,-1086.23"/>
<text text-anchor="middle" x="489.03" y="-1063.18" font-family="Times,serif" font-size="14.00">For each detection</text>
</g>
<!-- InitColors&#45;&gt;ForEachDetection -->
<g id="edge3" class="edge">
<title>InitColors&#45;&gt;ForEachDetection</title>
<path fill="none" stroke="black" d="M489.03,-1123.04C489.03,-1115.46 489.03,-1106.33 489.03,-1097.77"/>
<polygon fill="black" stroke="black" points="492.53,-1097.77 489.03,-1087.77 485.53,-1097.77 492.53,-1097.77"/>
</g>
<!-- GetClassID -->
<g id="node5" class="node">
<title>GetClassID</title>
<polygon fill="none" stroke="black" points="393.66,-997.73 228.41,-997.73 228.41,-961.73 393.66,-961.73 393.66,-997.73"/>
<text text-anchor="middle" x="311.03" y="-974.68" font-family="Times,serif" font-size="14.00">Get class_id and current_id</text>
</g>
<!-- ForEachDetection&#45;&gt;GetClassID -->
<g id="edge4" class="edge">
<title>ForEachDetection&#45;&gt;GetClassID</title>
<path fill="none" stroke="black" d="M462,-1054.09C434.14,-1040.56 390.22,-1019.21 356.92,-1003.03"/>
<polygon fill="black" stroke="black" points="358.84,-1000.07 348.31,-998.85 355.78,-1006.37 358.84,-1000.07"/>
<text text-anchor="middle" x="426.1" y="-1018.93" font-family="Times,serif" font-size="14.00">Yes</text>
</g>
<!-- ReturnImage -->
<g id="node18" class="node">
<title>ReturnImage</title>
<polygon fill="none" stroke="black" points="540.16,-997.73 437.91,-997.73 437.91,-961.73 540.16,-961.73 540.16,-997.73"/>
<text text-anchor="middle" x="489.03" y="-974.68" font-family="Times,serif" font-size="14.00">Return out_img</text>
</g>
<!-- ForEachDetection&#45;&gt;ReturnImage -->
<g id="edge22" class="edge">
<title>ForEachDetection&#45;&gt;ReturnImage</title>
<path fill="none" stroke="black" d="M489.03,-1049.73C489.03,-1038.24 489.03,-1022.93 489.03,-1009.66"/>
<polygon fill="black" stroke="black" points="492.53,-1009.72 489.03,-999.72 485.53,-1009.72 492.53,-1009.72"/>
<text text-anchor="middle" x="497.28" y="-1018.93" font-family="Times,serif" font-size="14.00">No</text>
</g>
<!-- CheckHelmet -->
<g id="node6" class="node">
<title>CheckHelmet</title>
<polygon fill="none" stroke="black" points="234.03,-924.73 0,-906.73 234.03,-888.73 468.06,-906.73 234.03,-924.73"/>
<text text-anchor="middle" x="234.03" y="-901.68" font-family="Times,serif" font-size="14.00">Is current_id in people_without_helmets?</text>
</g>
<!-- GetClassID&#45;&gt;CheckHelmet -->
<g id="edge5" class="edge">
<title>GetClassID&#45;&gt;CheckHelmet</title>
<path fill="none" stroke="black" d="M292.39,-961.54C282.56,-952.48 270.34,-941.21 259.63,-931.34"/>
<polygon fill="black" stroke="black" points="262.28,-929.02 252.56,-924.81 257.53,-934.16 262.28,-929.02"/>
</g>
<!-- ContinueLoop -->
<g id="node7" class="node">
<title>ContinueLoop</title>
<polygon fill="none" stroke="black" points="311.78,-782.23 156.28,-782.23 156.28,-746.23 311.78,-746.23 311.78,-782.23"/>
<text text-anchor="middle" x="234.03" y="-759.18" font-family="Times,serif" font-size="14.00">Continue to next iteration</text>
</g>
<!-- CheckHelmet&#45;&gt;ContinueLoop -->
<g id="edge6" class="edge">
<title>CheckHelmet&#45;&gt;ContinueLoop</title>
<path fill="none" stroke="black" d="M234.03,-888.5C234.03,-864.91 234.03,-822.23 234.03,-793.81"/>
<polygon fill="black" stroke="black" points="237.53,-794.11 234.03,-784.11 230.53,-794.11 237.53,-794.11"/>
<text text-anchor="middle" x="242.28" y="-857.43" font-family="Times,serif" font-size="14.00">No</text>
</g>
<!-- CalculateBBox -->
<g id="node8" class="node">
<title>CalculateBBox</title>
<polygon fill="none" stroke="black" points="481.91,-836.23 270.16,-836.23 270.16,-800.23 481.91,-800.23 481.91,-836.23"/>
<text text-anchor="middle" x="376.03" y="-813.18" font-family="Times,serif" font-size="14.00">Calculate bounding box coordinates</text>
</g>
<!-- CheckHelmet&#45;&gt;CalculateBBox -->
<g id="edge8" class="edge">
<title>CheckHelmet&#45;&gt;CalculateBBox</title>
<path fill="none" stroke="black" d="M259.42,-890.27C281.25,-876.97 313.06,-857.59 337.94,-842.43"/>
<polygon fill="black" stroke="black" points="339.43,-845.62 346.15,-837.43 335.79,-839.64 339.43,-845.62"/>
<text text-anchor="middle" x="327.87" y="-857.43" font-family="Times,serif" font-size="14.00">Yes</text>
</g>
<!-- EndFor -->
<g id="node17" class="node">
<title>EndFor</title>
<ellipse fill="none" stroke="black" cx="449.03" cy="-41.12" rx="41.12" ry="41.12"/>
<text text-anchor="middle" x="449.03" y="-36.07" font-family="Times,serif" font-size="14.00">End For</text>
</g>
<!-- ContinueLoop&#45;&gt;EndFor -->
<g id="edge7" class="edge">
<title>ContinueLoop&#45;&gt;EndFor</title>
<path fill="none" stroke="black" d="M234.03,-745.84C234.03,-726.57 234.03,-694.55 234.03,-666.98 234.03,-666.98 234.03,-666.98 234.03,-136.23 234.03,-65.65 332.47,-47.5 396.13,-43.13"/>
<polygon fill="black" stroke="black" points="396.28,-46.63 406.07,-42.56 395.88,-39.64 396.28,-46.63"/>
</g>
<!-- IsTransparent -->
<g id="node9" class="node">
<title>IsTransparent</title>
<polygon fill="none" stroke="black" points="397.03,-728.23 262.16,-710.23 397.03,-692.23 531.9,-710.23 397.03,-728.23"/>
<text text-anchor="middle" x="397.03" y="-705.18" font-family="Times,serif" font-size="14.00">Is is_transparent True?</text>
</g>
<!-- CalculateBBox&#45;&gt;IsTransparent -->
<g id="edge9" class="edge">
<title>CalculateBBox&#45;&gt;IsTransparent</title>
<path fill="none" stroke="black" d="M379.4,-800.2C382.65,-783.82 387.61,-758.76 391.45,-739.4"/>
<polygon fill="black" stroke="black" points="394.86,-740.19 393.37,-729.7 387.99,-738.83 394.86,-740.19"/>
</g>
<!-- DrawTransparentRect -->
<g id="node10" class="node">
<title>DrawTransparentRect</title>
<polygon fill="none" stroke="black" points="461.53,-639.73 298.53,-639.73 298.53,-603.73 461.53,-603.73 461.53,-639.73"/>
<text text-anchor="middle" x="380.03" y="-616.68" font-family="Times,serif" font-size="14.00">Draw transparent rectangle</text>
</g>
<!-- IsTransparent&#45;&gt;DrawTransparentRect -->
<g id="edge10" class="edge">
<title>IsTransparent&#45;&gt;DrawTransparentRect</title>
<path fill="none" stroke="black" d="M393.75,-692.55C391.45,-680.86 388.32,-664.93 385.63,-651.24"/>
<polygon fill="black" stroke="black" points="389.07,-650.57 383.71,-641.43 382.2,-651.92 389.07,-650.57"/>
<text text-anchor="middle" x="400.18" y="-660.93" font-family="Times,serif" font-size="14.00">Yes</text>
</g>
<!-- DrawRectangle -->
<g id="node12" class="node">
<title>DrawRectangle</title>
<polygon fill="none" stroke="black" points="484.03,-478.23 318.03,-478.23 318.03,-442.23 484.03,-442.23 484.03,-478.23"/>
<text text-anchor="middle" x="401.03" y="-455.18" font-family="Times,serif" font-size="14.00">Draw rectangle on out_img</text>
</g>
<!-- IsTransparent&#45;&gt;DrawRectangle -->
<g id="edge13" class="edge">
<title>IsTransparent&#45;&gt;DrawRectangle</title>
<path fill="none" stroke="black" d="M419.66,-694.89C436.88,-682.58 459.36,-663.14 470.03,-639.73 486.36,-603.9 473.14,-590.59 474.03,-551.23 474.39,-535.23 481.23,-529.52 474.03,-515.23 467.88,-503.02 457.52,-492.89 446.5,-484.83"/>
<polygon fill="black" stroke="black" points="448.68,-482.07 438.43,-479.39 444.77,-487.88 448.68,-482.07"/>
<text text-anchor="middle" x="484.7" y="-572.43" font-family="Times,serif" font-size="14.00">No</text>
</g>
<!-- BlendImages -->
<g id="node11" class="node">
<title>BlendImages</title>
<polygon fill="none" stroke="black" points="465.41,-551.23 280.66,-551.23 280.66,-515.23 465.41,-515.23 465.41,-551.23"/>
<text text-anchor="middle" x="373.03" y="-528.18" font-family="Times,serif" font-size="14.00">Blend draw_img with out_img</text>
</g>
<!-- DrawTransparentRect&#45;&gt;BlendImages -->
<g id="edge11" class="edge">
<title>DrawTransparentRect&#45;&gt;BlendImages</title>
<path fill="none" stroke="black" d="M378.65,-603.64C377.7,-591.99 376.43,-576.28 375.34,-562.75"/>
<polygon fill="black" stroke="black" points="378.85,-562.77 374.56,-553.09 371.87,-563.34 378.85,-562.77"/>
</g>
<!-- BlendImages&#45;&gt;DrawRectangle -->
<g id="edge12" class="edge">
<title>BlendImages&#45;&gt;DrawRectangle</title>
<path fill="none" stroke="black" d="M379.81,-515.04C382.9,-507.19 386.65,-497.7 390.12,-488.89"/>
<polygon fill="black" stroke="black" points="393.35,-490.25 393.76,-479.67 386.84,-487.69 393.35,-490.25"/>
</g>
<!-- DrawType -->
<g id="node13" class="node">
<title>DrawType</title>
<polygon fill="none" stroke="black" points="401.03,-405.23 284.26,-387.23 401.03,-369.23 517.8,-387.23 401.03,-405.23"/>
<text text-anchor="middle" x="401.03" y="-382.18" font-family="Times,serif" font-size="14.00">Is draw_type True?</text>
</g>
<!-- DrawRectangle&#45;&gt;DrawType -->
<g id="edge14" class="edge">
<title>DrawRectangle&#45;&gt;DrawType</title>
<path fill="none" stroke="black" d="M401.03,-442.04C401.03,-434.46 401.03,-425.33 401.03,-416.77"/>
<polygon fill="black" stroke="black" points="404.53,-416.77 401.03,-406.77 397.53,-416.77 404.53,-416.77"/>
</g>
<!-- CallDrawLabel -->
<g id="node14" class="node">
<title>CallDrawLabel</title>
<polygon fill="none" stroke="black" points="442.66,-316.73 301.41,-316.73 301.41,-280.73 442.66,-280.73 442.66,-316.73"/>
<text text-anchor="middle" x="372.03" y="-293.68" font-family="Times,serif" font-size="14.00">Call draw_label_type()</text>
</g>
<!-- DrawType&#45;&gt;CallDrawLabel -->
<g id="edge15" class="edge">
<title>DrawType&#45;&gt;CallDrawLabel</title>
<path fill="none" stroke="black" d="M395.58,-369.96C391.59,-358.07 386.08,-341.64 381.4,-327.66"/>
<polygon fill="black" stroke="black" points="384.84,-326.92 378.34,-318.55 378.2,-329.14 384.84,-326.92"/>
<text text-anchor="middle" x="399.25" y="-337.93" font-family="Times,serif" font-size="14.00">Yes</text>
</g>
<!-- DrawCorner -->
<g id="node15" class="node">
<title>DrawCorner</title>
<polygon fill="none" stroke="black" points="401.03,-243.73 273.4,-225.73 401.03,-207.73 528.66,-225.73 401.03,-243.73"/>
<text text-anchor="middle" x="401.03" y="-220.68" font-family="Times,serif" font-size="14.00">Is draw_corner True?</text>
</g>
<!-- DrawType&#45;&gt;DrawCorner -->
<g id="edge17" class="edge">
<title>DrawType&#45;&gt;DrawCorner</title>
<path fill="none" stroke="black" d="M416.43,-371.32C428.73,-358.26 445.04,-338.06 452.03,-316.73 457.01,-301.53 457.94,-295.6 452.03,-280.73 447.22,-268.62 438.25,-257.66 429.17,-248.82"/>
<polygon fill="black" stroke="black" points="431.79,-246.47 422.03,-242.35 427.09,-251.66 431.79,-246.47"/>
<text text-anchor="middle" x="464.37" y="-293.68" font-family="Times,serif" font-size="14.00">No</text>
</g>
<!-- CallDrawLabel&#45;&gt;DrawCorner -->
<g id="edge16" class="edge">
<title>CallDrawLabel&#45;&gt;DrawCorner</title>
<path fill="none" stroke="black" d="M379.05,-280.54C382.34,-272.49 386.34,-262.71 390.01,-253.7"/>
<polygon fill="black" stroke="black" points="393.16,-255.25 393.7,-244.67 386.68,-252.61 393.16,-255.25"/>
</g>
<!-- CallDrawCorner -->
<g id="node16" class="node">
<title>CallDrawCorner</title>
<polygon fill="none" stroke="black" points="441.28,-155.23 294.78,-155.23 294.78,-119.23 441.28,-119.23 441.28,-155.23"/>
<text text-anchor="middle" x="368.03" y="-132.18" font-family="Times,serif" font-size="14.00">Call draw_box_corner()</text>
</g>
<!-- DrawCorner&#45;&gt;CallDrawCorner -->
<g id="edge18" class="edge">
<title>DrawCorner&#45;&gt;CallDrawCorner</title>
<path fill="none" stroke="black" d="M394.82,-208.46C390.29,-196.57 384.02,-180.14 378.69,-166.16"/>
<polygon fill="black" stroke="black" points="382.04,-165.12 375.2,-157.03 375.5,-167.62 382.04,-165.12"/>
<text text-anchor="middle" x="397.61" y="-176.43" font-family="Times,serif" font-size="14.00">Yes</text>
</g>
<!-- DrawCorner&#45;&gt;EndFor -->
<g id="edge20" class="edge">
<title>DrawCorner&#45;&gt;EndFor</title>
<path fill="none" stroke="black" d="M416.07,-209.45C427.87,-196.3 443.38,-176.2 450.03,-155.23 456.26,-135.59 457.21,-113.05 456.17,-93.29"/>
<polygon fill="black" stroke="black" points="459.68,-93.24 455.46,-83.52 452.7,-93.75 459.68,-93.24"/>
<text text-anchor="middle" x="464.39" y="-132.18" font-family="Times,serif" font-size="14.00">No</text>
</g>
<!-- CallDrawCorner&#45;&gt;EndFor -->
<g id="edge19" class="edge">
<title>CallDrawCorner&#45;&gt;EndFor</title>
<path fill="none" stroke="black" d="M382.89,-118.97C391.95,-108.43 403.93,-94.51 415.2,-81.42"/>
<polygon fill="black" stroke="black" points="417.61,-83.99 421.48,-74.12 412.31,-79.42 417.61,-83.99"/>
</g>
<!-- EndFor&#45;&gt;ForEachDetection -->
<g id="edge21" class="edge">
<title>EndFor&#45;&gt;ForEachDetection</title>
<path fill="none" stroke="black" d="M488.33,-54.77C522.99,-68.68 568.03,-94.74 568.03,-136.23 568.03,-980.73 568.03,-980.73 568.03,-980.73 568.03,-1009.25 544.32,-1032.49 522.88,-1047.66"/>
<polygon fill="black" stroke="black" points="521.23,-1044.56 514.85,-1053.02 525.11,-1050.38 521.23,-1044.56"/>
</g>
<!-- End -->
<g id="node19" class="node">
<title>End</title>
<ellipse fill="none" stroke="black" cx="513.03" cy="-906.73" rx="27" ry="18"/>
<text text-anchor="middle" x="513.03" y="-901.68" font-family="Times,serif" font-size="14.00">End</text>
</g>
<!-- ReturnImage&#45;&gt;End -->
<g id="edge23" class="edge">
<title>ReturnImage&#45;&gt;End</title>
<path fill="none" stroke="black" d="M494.84,-961.54C497.49,-953.69 500.7,-944.2 503.68,-935.39"/>
<polygon fill="black" stroke="black" points="506.9,-936.79 506.79,-926.19 500.27,-934.55 506.9,-936.79"/>
</g>
</g>
</svg>
