<?xml version="1.0" encoding="UTF-8" standalone="no"?>
<!DOCTYPE svg PUBLIC "-//W3C//DTD SVG 1.1//EN"
 "http://www.w3.org/Graphics/SVG/1.1/DTD/svg11.dtd">
<!-- Generated by graphviz version 12.2.0 (20241103.1931)
 -->
<!-- Pages: 1 -->
<svg width="576pt" height="467pt"
 viewBox="0.00 0.00 576.00 466.84" xmlns="http://www.w3.org/2000/svg" xmlns:xlink="http://www.w3.org/1999/xlink">
<g id="graph0" class="graph" transform="scale(0.812276 0.812276) rotate(0) translate(4 570.73)">
<polygon fill="white" stroke="none" points="-4,4 -4,-570.73 705.12,-570.73 705.12,4 -4,4"/>
<!-- Start -->
<g id="node1" class="node">
<title>Start</title>
<ellipse fill="none" stroke="black" cx="520.65" cy="-548.73" rx="28.32" ry="18"/>
<text text-anchor="middle" x="520.65" y="-543.68" font-family="Times,serif" font-size="14.00">Start</text>
</g>
<!-- ExtractIDs -->
<g id="node2" class="node">
<title>ExtractIDs</title>
<polygon fill="none" stroke="black" points="612.65,-493.73 428.65,-493.73 428.65,-457.73 612.65,-457.73 612.65,-493.73"/>
<text text-anchor="middle" x="520.65" y="-470.68" font-family="Times,serif" font-size="14.00">Extract class_ids and track_ids</text>
</g>
<!-- Start&#45;&gt;ExtractIDs -->
<g id="edge1" class="edge">
<title>Start&#45;&gt;ExtractIDs</title>
<path fill="none" stroke="black" d="M520.65,-530.54C520.65,-522.96 520.65,-513.83 520.65,-505.27"/>
<polygon fill="black" stroke="black" points="524.15,-505.27 520.65,-495.27 517.15,-505.27 524.15,-505.27"/>
</g>
<!-- ForEachPair -->
<g id="node3" class="node">
<title>ForEachPair</title>
<polygon fill="none" stroke="black" points="520.65,-420.73 340.18,-402.73 520.65,-384.73 701.12,-402.73 520.65,-420.73"/>
<text text-anchor="middle" x="520.65" y="-397.68" font-family="Times,serif" font-size="14.00">For each class_id, track_id pair</text>
</g>
<!-- ExtractIDs&#45;&gt;ForEachPair -->
<g id="edge2" class="edge">
<title>ExtractIDs&#45;&gt;ForEachPair</title>
<path fill="none" stroke="black" d="M520.65,-457.54C520.65,-449.96 520.65,-440.83 520.65,-432.27"/>
<polygon fill="black" stroke="black" points="524.15,-432.27 520.65,-422.27 517.15,-432.27 524.15,-432.27"/>
</g>
<!-- CheckMaxID -->
<g id="node4" class="node">
<title>CheckMaxID</title>
<polygon fill="none" stroke="black" points="237.65,-332.23 0,-314.23 237.65,-296.23 475.3,-314.23 237.65,-332.23"/>
<text text-anchor="middle" x="237.65" y="-309.18" font-family="Times,serif" font-size="14.00">Is track_id &gt; max_id_per_class[class_id]?</text>
</g>
<!-- ForEachPair&#45;&gt;CheckMaxID -->
<g id="edge3" class="edge">
<title>ForEachPair&#45;&gt;CheckMaxID</title>
<path fill="none" stroke="black" d="M477.67,-388.59C428.63,-373.6 348.25,-349.04 294.17,-332.51"/>
<polygon fill="black" stroke="black" points="295.42,-329.23 284.83,-329.65 293.37,-335.92 295.42,-329.23"/>
<text text-anchor="middle" x="414.62" y="-353.43" font-family="Times,serif" font-size="14.00">Yes</text>
</g>
<!-- End -->
<g id="node8" class="node">
<title>End</title>
<ellipse fill="none" stroke="black" cx="520.65" cy="-314.23" rx="27" ry="18"/>
<text text-anchor="middle" x="520.65" y="-309.18" font-family="Times,serif" font-size="14.00">End</text>
</g>
<!-- ForEachPair&#45;&gt;End -->
<g id="edge9" class="edge">
<title>ForEachPair&#45;&gt;End</title>
<path fill="none" stroke="black" d="M520.65,-384.64C520.65,-372.99 520.65,-357.28 520.65,-343.75"/>
<polygon fill="black" stroke="black" points="524.15,-344.09 520.65,-334.09 517.15,-344.09 524.15,-344.09"/>
<text text-anchor="middle" x="528.9" y="-353.43" font-family="Times,serif" font-size="14.00">No</text>
</g>
<!-- UpdateMaxID -->
<g id="node5" class="node">
<title>UpdateMaxID</title>
<polygon fill="none" stroke="black" points="342.4,-243.73 132.9,-243.73 132.9,-207.73 342.4,-207.73 342.4,-243.73"/>
<text text-anchor="middle" x="237.65" y="-220.68" font-family="Times,serif" font-size="14.00">Update max_id_per_class[class_id]</text>
</g>
<!-- CheckMaxID&#45;&gt;UpdateMaxID -->
<g id="edge4" class="edge">
<title>CheckMaxID&#45;&gt;UpdateMaxID</title>
<path fill="none" stroke="black" d="M237.65,-296.14C237.65,-284.49 237.65,-268.78 237.65,-255.25"/>
<polygon fill="black" stroke="black" points="241.15,-255.59 237.65,-245.59 234.15,-255.59 241.15,-255.59"/>
<text text-anchor="middle" x="247.77" y="-264.93" font-family="Times,serif" font-size="14.00">Yes</text>
</g>
<!-- EndFor -->
<g id="node7" class="node">
<title>EndFor</title>
<ellipse fill="none" stroke="black" cx="372.65" cy="-41.12" rx="41.12" ry="41.12"/>
<text text-anchor="middle" x="372.65" y="-36.07" font-family="Times,serif" font-size="14.00">End For</text>
</g>
<!-- CheckMaxID&#45;&gt;EndFor -->
<g id="edge7" class="edge">
<title>CheckMaxID&#45;&gt;EndFor</title>
<path fill="none" stroke="black" d="M279.06,-298.94C304.37,-287.93 335,-270.09 351.65,-243.73 379.98,-198.9 382.23,-136.99 379.29,-93.64"/>
<polygon fill="black" stroke="black" points="382.79,-93.41 378.49,-83.73 375.81,-93.97 382.79,-93.41"/>
<text text-anchor="middle" x="384.58" y="-176.43" font-family="Times,serif" font-size="14.00">No</text>
</g>
<!-- IncrementCount -->
<g id="node6" class="node">
<title>IncrementCount</title>
<polygon fill="none" stroke="black" points="345.02,-155.23 130.27,-155.23 130.27,-119.23 345.02,-119.23 345.02,-155.23"/>
<text text-anchor="middle" x="237.65" y="-132.18" font-family="Times,serif" font-size="14.00">Increment count_per_class[class_id]</text>
</g>
<!-- UpdateMaxID&#45;&gt;IncrementCount -->
<g id="edge5" class="edge">
<title>UpdateMaxID&#45;&gt;IncrementCount</title>
<path fill="none" stroke="black" d="M237.65,-207.64C237.65,-195.99 237.65,-180.28 237.65,-166.75"/>
<polygon fill="black" stroke="black" points="241.15,-167.09 237.65,-157.09 234.15,-167.09 241.15,-167.09"/>
</g>
<!-- IncrementCount&#45;&gt;EndFor -->
<g id="edge6" class="edge">
<title>IncrementCount&#45;&gt;EndFor</title>
<path fill="none" stroke="black" d="M262.73,-118.75C281.54,-105.63 307.75,-87.36 329.86,-71.95"/>
<polygon fill="black" stroke="black" points="331.61,-75 337.81,-66.4 327.6,-69.25 331.61,-75"/>
</g>
<!-- EndFor&#45;&gt;ForEachPair -->
<g id="edge8" class="edge">
<title>EndFor&#45;&gt;ForEachPair</title>
<path fill="none" stroke="black" d="M413.73,-43.44C473.05,-47.79 575.65,-65.53 575.65,-136.23 575.65,-315.23 575.65,-315.23 575.65,-315.23 575.65,-339.1 560.55,-361.71 546.17,-377.82"/>
<polygon fill="black" stroke="black" points="543.73,-375.31 539.4,-384.97 548.81,-380.12 543.73,-375.31"/>
</g>
</g>
</svg>
