<?xml version="1.0" encoding="UTF-8" standalone="no"?>
<!DOCTYPE svg PUBLIC "-//W3C//DTD SVG 1.1//EN"
 "http://www.w3.org/Graphics/SVG/1.1/DTD/svg11.dtd">
<!-- Generated by graphviz version 12.2.0 (20241103.1931)
 -->
<!-- Pages: 1 -->
<svg width="458pt" height="265pt"
 viewBox="0.00 0.00 458.25 265.00" xmlns="http://www.w3.org/2000/svg" xmlns:xlink="http://www.w3.org/1999/xlink">
<g id="graph0" class="graph" transform="scale(1 1) rotate(0) translate(4 261)">
<polygon fill="white" stroke="none" points="-4,4 -4,-261 454.25,-261 454.25,4 -4,4"/>
<!-- Start -->
<g id="node1" class="node">
<title>Start</title>
<ellipse fill="none" stroke="black" cx="210.25" cy="-239" rx="28.32" ry="18"/>
<text text-anchor="middle" x="210.25" y="-233.95" font-family="Times,serif" font-size="14.00">Start</text>
</g>
<!-- MainProcess -->
<g id="node2" class="node">
<title>MainProcess</title>
<ellipse fill="none" stroke="black" cx="210.25" cy="-167" rx="61.59" ry="18"/>
<text text-anchor="middle" x="210.25" y="-161.95" font-family="Times,serif" font-size="14.00">Main Process</text>
</g>
<!-- Start&#45;&gt;MainProcess -->
<g id="edge1" class="edge">
<title>Start&#45;&gt;MainProcess</title>
<path fill="none" stroke="black" d="M210.25,-220.7C210.25,-213.41 210.25,-204.73 210.25,-196.54"/>
<polygon fill="black" stroke="black" points="213.75,-196.62 210.25,-186.62 206.75,-196.62 213.75,-196.62"/>
</g>
<!-- HelperUtilities -->
<g id="node3" class="node">
<title>HelperUtilities</title>
<polygon fill="none" stroke="black" points="308.25,-113 208.25,-113 208.25,-77 308.25,-77 308.25,-113"/>
<text text-anchor="middle" x="258.25" y="-89.95" font-family="Times,serif" font-size="14.00">Helper Utilities</text>
</g>
<!-- MainProcess&#45;&gt;HelperUtilities -->
<g id="edge2" class="edge">
<title>MainProcess&#45;&gt;HelperUtilities</title>
<path fill="none" stroke="black" d="M221.87,-149.05C227.33,-141.09 233.97,-131.41 240.07,-122.51"/>
<polygon fill="black" stroke="black" points="242.78,-124.75 245.55,-114.52 237.01,-120.79 242.78,-124.75"/>
</g>
<!-- End -->
<g id="node6" class="node">
<title>End</title>
<ellipse fill="none" stroke="black" cx="163.25" cy="-95" rx="27" ry="18"/>
<text text-anchor="middle" x="163.25" y="-89.95" font-family="Times,serif" font-size="14.00">End</text>
</g>
<!-- MainProcess&#45;&gt;End -->
<g id="edge7" class="edge">
<title>MainProcess&#45;&gt;End</title>
<path fill="none" stroke="black" d="M198.87,-149.05C193.29,-140.73 186.44,-130.54 180.25,-121.32"/>
<polygon fill="black" stroke="black" points="183.2,-119.44 174.72,-113.09 177.39,-123.34 183.2,-119.44"/>
</g>
<!-- FormatObjectLocation -->
<g id="node4" class="node">
<title>FormatObjectLocation</title>
<polygon fill="none" stroke="black" points="212.5,-41 0,-41 0,0 212.5,0 212.5,-41"/>
<text text-anchor="middle" x="106.25" y="-23.7" font-family="Times,serif" font-size="14.00">Format Object Location</text>
<text text-anchor="middle" x="106.25" y="-7.2" font-family="Times,serif" font-size="14.00">(generate_objects_location_string())</text>
</g>
<!-- HelperUtilities&#45;&gt;FormatObjectLocation -->
<g id="edge3" class="edge">
<title>HelperUtilities&#45;&gt;FormatObjectLocation</title>
<path fill="none" stroke="black" d="M221.84,-76.63C202.83,-67.57 179.24,-56.31 158.33,-46.34"/>
<polygon fill="black" stroke="black" points="159.9,-43.21 149.37,-42.07 156.89,-49.53 159.9,-43.21"/>
</g>
<!-- GenerateStatistics -->
<g id="node5" class="node">
<title>GenerateStatistics</title>
<polygon fill="none" stroke="black" points="450.25,-41 230.25,-41 230.25,0 450.25,0 450.25,-41"/>
<text text-anchor="middle" x="340.25" y="-23.7" font-family="Times,serif" font-size="14.00">Generate Statistics String</text>
<text text-anchor="middle" x="340.25" y="-7.2" font-family="Times,serif" font-size="14.00">(generate_detailed_statistics_string())</text>
</g>
<!-- HelperUtilities&#45;&gt;GenerateStatistics -->
<g id="edge4" class="edge">
<title>HelperUtilities&#45;&gt;GenerateStatistics</title>
<path fill="none" stroke="black" d="M277.68,-76.82C287.08,-68.51 298.59,-58.33 309.17,-48.98"/>
<polygon fill="black" stroke="black" points="311.46,-51.63 316.63,-42.38 306.82,-46.39 311.46,-51.63"/>
</g>
<!-- FormatObjectLocation&#45;&gt;MainProcess -->
<g id="edge5" class="edge">
<title>FormatObjectLocation&#45;&gt;MainProcess</title>
<path fill="none" stroke="black" d="M106.56,-41.46C107.78,-61.27 112.22,-91.69 127.25,-113 137.01,-126.85 151.66,-137.92 165.95,-146.29"/>
<polygon fill="black" stroke="black" points="163.94,-149.18 174.39,-150.92 167.3,-143.04 163.94,-149.18"/>
</g>
<!-- GenerateStatistics&#45;&gt;MainProcess -->
<g id="edge6" class="edge">
<title>GenerateStatistics&#45;&gt;MainProcess</title>
<path fill="none" stroke="black" d="M339.94,-41.47C338.63,-61.57 333.8,-92.47 317.25,-113 303.75,-129.75 283.61,-141.63 264.43,-149.83"/>
<polygon fill="black" stroke="black" points="263.32,-146.51 255.33,-153.46 265.91,-153.01 263.32,-146.51"/>
</g>
</g>
</svg>
