<?xml version="1.0" encoding="UTF-8" standalone="no"?>
<!DOCTYPE svg PUBLIC "-//W3C//DTD SVG 1.1//EN"
 "http://www.w3.org/Graphics/SVG/1.1/DTD/svg11.dtd">
<!-- Generated by graphviz version 12.2.0 (20241103.1931)
 -->
<!-- Pages: 1 -->
<svg width="470pt" height="864pt"
 viewBox="0.00 0.00 470.06 864.00" xmlns="http://www.w3.org/2000/svg" xmlns:xlink="http://www.w3.org/1999/xlink">
<g id="graph0" class="graph" transform="scale(0.867155 0.867155) rotate(0) translate(4 992.36)">
<polygon fill="white" stroke="none" points="-4,4 -4,-992.36 538.07,-992.36 538.07,4 -4,4"/>
<!-- Start -->
<g id="node1" class="node">
<title>Start</title>
<ellipse fill="none" stroke="black" cx="374.59" cy="-970.36" rx="28.32" ry="18"/>
<text text-anchor="middle" x="374.59" y="-965.31" font-family="Times,serif" font-size="14.00">Start</text>
</g>
<!-- StreamHandler -->
<g id="node2" class="node">
<title>StreamHandler</title>
<ellipse fill="none" stroke="black" cx="374.59" cy="-886.37" rx="100.41" ry="28.99"/>
<text text-anchor="middle" x="374.59" y="-889.57" font-family="Times,serif" font-size="14.00">Stream Handler</text>
<text text-anchor="middle" x="374.59" y="-873.07" font-family="Times,serif" font-size="14.00">(check_rtmp_stream())</text>
</g>
<!-- Start&#45;&gt;StreamHandler -->
<g id="edge1" class="edge">
<title>Start&#45;&gt;StreamHandler</title>
<path fill="none" stroke="black" d="M374.59,-951.97C374.59,-944.65 374.59,-935.81 374.59,-927.04"/>
<polygon fill="black" stroke="black" points="378.09,-927.22 374.59,-917.22 371.09,-927.22 378.09,-927.22"/>
</g>
<!-- StreamAvailable -->
<g id="node3" class="node">
<title>StreamAvailable</title>
<polygon fill="none" stroke="black" points="374.59,-820.38 215.11,-802.38 374.59,-784.38 534.07,-802.38 374.59,-820.38"/>
<text text-anchor="middle" x="374.59" y="-797.33" font-family="Times,serif" font-size="14.00">Is RTMP stream available?</text>
</g>
<!-- StreamHandler&#45;&gt;StreamAvailable -->
<g id="edge2" class="edge">
<title>StreamHandler&#45;&gt;StreamAvailable</title>
<path fill="none" stroke="black" d="M374.59,-857.15C374.59,-848.94 374.59,-839.96 374.59,-831.74"/>
<polygon fill="black" stroke="black" points="378.09,-831.91 374.59,-821.91 371.09,-831.91 378.09,-831.91"/>
</g>
<!-- DetectionHandler -->
<g id="node4" class="node">
<title>DetectionHandler</title>
<ellipse fill="none" stroke="black" cx="305.59" cy="-702.89" rx="92.98" ry="28.99"/>
<text text-anchor="middle" x="305.59" y="-706.09" font-family="Times,serif" font-size="14.00">Detection Handler</text>
<text text-anchor="middle" x="305.59" y="-689.59" font-family="Times,serif" font-size="14.00">(detect(UAV_status))</text>
</g>
<!-- StreamAvailable&#45;&gt;DetectionHandler -->
<g id="edge3" class="edge">
<title>StreamAvailable&#45;&gt;DetectionHandler</title>
<path fill="none" stroke="black" d="M363.2,-785.28C354.64,-773.19 342.57,-756.13 331.69,-740.76"/>
<polygon fill="black" stroke="black" points="334.62,-738.84 325.98,-732.7 328.9,-742.88 334.62,-738.84"/>
<text text-anchor="middle" x="358.43" y="-753.08" font-family="Times,serif" font-size="14.00">Yes</text>
</g>
<!-- End -->
<g id="node12" class="node">
<title>End</title>
<ellipse fill="none" stroke="black" cx="443.59" cy="-702.89" rx="27" ry="18"/>
<text text-anchor="middle" x="443.59" y="-697.84" font-family="Times,serif" font-size="14.00">End</text>
</g>
<!-- StreamAvailable&#45;&gt;End -->
<g id="edge4" class="edge">
<title>StreamAvailable&#45;&gt;End</title>
<path fill="none" stroke="black" d="M385.99,-785.28C396.84,-769.95 413.33,-746.64 425.9,-728.89"/>
<polygon fill="black" stroke="black" points="428.62,-731.11 431.54,-720.92 422.9,-727.06 428.62,-731.11"/>
<text text-anchor="middle" x="417.34" y="-753.08" font-family="Times,serif" font-size="14.00">No</text>
</g>
<!-- FrameProcessor -->
<g id="node5" class="node">
<title>FrameProcessor</title>
<ellipse fill="none" stroke="black" cx="182.59" cy="-607.91" rx="80.26" ry="28.99"/>
<text text-anchor="middle" x="182.59" y="-611.11" font-family="Times,serif" font-size="14.00">Frame Processor</text>
<text text-anchor="middle" x="182.59" y="-594.61" font-family="Times,serif" font-size="14.00">(process_frame())</text>
</g>
<!-- DetectionHandler&#45;&gt;FrameProcessor -->
<g id="edge5" class="edge">
<title>DetectionHandler&#45;&gt;FrameProcessor</title>
<path fill="none" stroke="black" d="M271,-675.74C256.88,-665.06 240.4,-652.61 225.52,-641.36"/>
<polygon fill="black" stroke="black" points="227.79,-638.69 217.71,-635.45 223.57,-644.27 227.79,-638.69"/>
</g>
<!-- ValidationUtility -->
<g id="node11" class="node">
<title>ValidationUtility</title>
<ellipse fill="none" stroke="black" cx="138.59" cy="-497.42" rx="138.59" ry="28.99"/>
<text text-anchor="middle" x="138.59" y="-500.62" font-family="Times,serif" font-size="14.00">Validation Utility</text>
<text text-anchor="middle" x="138.59" y="-484.12" font-family="Times,serif" font-size="14.00">(find_people_without_helmets())</text>
</g>
<!-- FrameProcessor&#45;&gt;ValidationUtility -->
<g id="edge6" class="edge">
<title>FrameProcessor&#45;&gt;ValidationUtility</title>
<path fill="none" stroke="black" d="M171.26,-578.97C166.12,-566.29 159.95,-551.07 154.36,-537.3"/>
<polygon fill="black" stroke="black" points="157.61,-536 150.61,-528.04 151.12,-538.63 157.61,-536"/>
</g>
<!-- AlarmCondition -->
<g id="node6" class="node">
<title>AlarmCondition</title>
<polygon fill="none" stroke="black" points="179.59,-431.43 43.28,-413.43 179.59,-395.43 315.91,-413.43 179.59,-431.43"/>
<text text-anchor="middle" x="179.59" y="-408.38" font-family="Times,serif" font-size="14.00">Alarm Condition Met?</text>
</g>
<!-- AlarmCondition&#45;&gt;DetectionHandler -->
<g id="edge9" class="edge">
<title>AlarmCondition&#45;&gt;DetectionHandler</title>
<path fill="none" stroke="black" d="M224.93,-425.92C247.25,-434.01 272.36,-447.28 286.59,-468.43 307.25,-499.13 308.14,-604.14 306.93,-662.31"/>
<polygon fill="black" stroke="black" points="303.43,-662.03 306.69,-672.11 310.43,-662.2 303.43,-662.03"/>
<text text-anchor="middle" x="313.51" y="-547.61" font-family="Times,serif" font-size="14.00">No</text>
</g>
<!-- AlarmHandler -->
<g id="node7" class="node">
<title>AlarmHandler</title>
<ellipse fill="none" stroke="black" cx="182.59" cy="-313.94" rx="69.65" ry="28.99"/>
<text text-anchor="middle" x="182.59" y="-317.14" font-family="Times,serif" font-size="14.00">Alarm Handler</text>
<text text-anchor="middle" x="182.59" y="-300.64" font-family="Times,serif" font-size="14.00">(cap_alarm())</text>
</g>
<!-- AlarmCondition&#45;&gt;AlarmHandler -->
<g id="edge8" class="edge">
<title>AlarmCondition&#45;&gt;AlarmHandler</title>
<path fill="none" stroke="black" d="M180.13,-395C180.47,-383.79 180.94,-368.75 181.37,-354.73"/>
<polygon fill="black" stroke="black" points="184.86,-354.92 181.67,-344.81 177.87,-354.7 184.86,-354.92"/>
<text text-anchor="middle" x="191.22" y="-364.13" font-family="Times,serif" font-size="14.00">Yes</text>
</g>
<!-- DrawingUtility -->
<g id="node10" class="node">
<title>DrawingUtility</title>
<ellipse fill="none" stroke="black" cx="183.59" cy="-218.96" rx="112.61" ry="28.99"/>
<text text-anchor="middle" x="183.59" y="-222.16" font-family="Times,serif" font-size="14.00">Drawing Utility</text>
<text text-anchor="middle" x="183.59" y="-205.66" font-family="Times,serif" font-size="14.00">(test_corner_boxes(), etc.)</text>
</g>
<!-- AlarmHandler&#45;&gt;DrawingUtility -->
<g id="edge10" class="edge">
<title>AlarmHandler&#45;&gt;DrawingUtility</title>
<path fill="none" stroke="black" d="M182.9,-284.54C182.98,-276.7 183.08,-268.04 183.17,-259.69"/>
<polygon fill="black" stroke="black" points="186.67,-259.74 183.27,-249.7 179.67,-259.66 186.67,-259.74"/>
</g>
<!-- DataUploader -->
<g id="node8" class="node">
<title>DataUploader</title>
<ellipse fill="none" stroke="black" cx="183.59" cy="-123.97" rx="131.7" ry="28.99"/>
<text text-anchor="middle" x="183.59" y="-127.17" font-family="Times,serif" font-size="14.00">Data Uploader</text>
<text text-anchor="middle" x="183.59" y="-110.67" font-family="Times,serif" font-size="14.00">(analysis_results_for_QDEQ())</text>
</g>
<!-- ImageUploader -->
<g id="node9" class="node">
<title>ImageUploader</title>
<ellipse fill="none" stroke="black" cx="263.59" cy="-28.99" rx="96.7" ry="28.99"/>
<text text-anchor="middle" x="263.59" y="-32.19" font-family="Times,serif" font-size="14.00">Image Uploader</text>
<text text-anchor="middle" x="263.59" y="-15.69" font-family="Times,serif" font-size="14.00">(upload_drone_img())</text>
</g>
<!-- DataUploader&#45;&gt;ImageUploader -->
<g id="edge12" class="edge">
<title>DataUploader&#45;&gt;ImageUploader</title>
<path fill="none" stroke="black" d="M207.6,-95.08C215.42,-85.98 224.22,-75.76 232.48,-66.15"/>
<polygon fill="black" stroke="black" points="235.03,-68.56 238.9,-58.7 229.72,-63.99 235.03,-68.56"/>
</g>
<!-- ImageUploader&#45;&gt;DetectionHandler -->
<g id="edge13" class="edge">
<title>ImageUploader&#45;&gt;DetectionHandler</title>
<path fill="none" stroke="black" d="M303.12,-55.66C323.28,-72.11 343.59,-95.5 343.59,-122.97 343.59,-608.91 343.59,-608.91 343.59,-608.91 343.59,-627.93 336.69,-647.63 328.77,-663.97"/>
<polygon fill="black" stroke="black" points="325.67,-662.35 324.18,-672.84 331.88,-665.57 325.67,-662.35"/>
</g>
<!-- DrawingUtility&#45;&gt;DataUploader -->
<g id="edge11" class="edge">
<title>DrawingUtility&#45;&gt;DataUploader</title>
<path fill="none" stroke="black" d="M183.59,-189.55C183.59,-181.71 183.59,-173.06 183.59,-164.7"/>
<polygon fill="black" stroke="black" points="187.09,-164.72 183.59,-154.72 180.09,-164.72 187.09,-164.72"/>
</g>
<!-- ValidationUtility&#45;&gt;AlarmCondition -->
<g id="edge7" class="edge">
<title>ValidationUtility&#45;&gt;AlarmCondition</title>
<path fill="none" stroke="black" d="M152.7,-468.21C157.18,-459.25 162.11,-449.39 166.52,-440.58"/>
<polygon fill="black" stroke="black" points="169.54,-442.36 170.88,-431.85 163.28,-439.23 169.54,-442.36"/>
</g>
</g>
</svg>
