<?xml version="1.0" encoding="UTF-8" standalone="no"?>
<!DOCTYPE svg PUBLIC "-//W3C//DTD SVG 1.1//EN"
 "http://www.w3.org/Graphics/SVG/1.1/DTD/svg11.dtd">
<!-- Generated by graphviz version 12.2.0 (20241103.1931)
 -->
<!-- Pages: 1 -->
<svg width="261pt" height="476pt"
 viewBox="0.00 0.00 261.00 476.00" xmlns="http://www.w3.org/2000/svg" xmlns:xlink="http://www.w3.org/1999/xlink">
<g id="graph0" class="graph" transform="scale(1 1) rotate(0) translate(4 472)">
<polygon fill="white" stroke="none" points="-4,4 -4,-472 257,-472 257,4 -4,4"/>
<!-- Start -->
<g id="node1" class="node">
<title>Start</title>
<ellipse fill="none" stroke="black" cx="126.5" cy="-450" rx="28.32" ry="18"/>
<text text-anchor="middle" x="126.5" y="-444.95" font-family="Times,serif" font-size="14.00">Start</text>
</g>
<!-- PrepareURL -->
<g id="node2" class="node">
<title>PrepareURL</title>
<polygon fill="none" stroke="black" points="190.75,-396 62.25,-396 62.25,-360 190.75,-360 190.75,-396"/>
<text text-anchor="middle" x="126.5" y="-372.95" font-family="Times,serif" font-size="14.00">Prepare upload URL</text>
</g>
<!-- Start&#45;&gt;PrepareURL -->
<g id="edge1" class="edge">
<title>Start&#45;&gt;PrepareURL</title>
<path fill="none" stroke="black" d="M126.5,-431.7C126.5,-424.41 126.5,-415.73 126.5,-407.54"/>
<polygon fill="black" stroke="black" points="130,-407.62 126.5,-397.62 123,-407.62 130,-407.62"/>
</g>
<!-- OpenImage -->
<g id="node3" class="node">
<title>OpenImage</title>
<polygon fill="none" stroke="black" points="178.75,-324 74.25,-324 74.25,-288 178.75,-288 178.75,-324"/>
<text text-anchor="middle" x="126.5" y="-300.95" font-family="Times,serif" font-size="14.00">Open image file</text>
</g>
<!-- PrepareURL&#45;&gt;OpenImage -->
<g id="edge2" class="edge">
<title>PrepareURL&#45;&gt;OpenImage</title>
<path fill="none" stroke="black" d="M126.5,-359.7C126.5,-352.41 126.5,-343.73 126.5,-335.54"/>
<polygon fill="black" stroke="black" points="130,-335.62 126.5,-325.62 123,-335.62 130,-335.62"/>
</g>
<!-- POSTFile -->
<g id="node4" class="node">
<title>POSTFile</title>
<polygon fill="none" stroke="black" points="187,-252 66,-252 66,-216 187,-216 187,-252"/>
<text text-anchor="middle" x="126.5" y="-228.95" font-family="Times,serif" font-size="14.00">POST file to server</text>
</g>
<!-- OpenImage&#45;&gt;POSTFile -->
<g id="edge3" class="edge">
<title>OpenImage&#45;&gt;POSTFile</title>
<path fill="none" stroke="black" d="M126.5,-287.7C126.5,-280.41 126.5,-271.73 126.5,-263.54"/>
<polygon fill="black" stroke="black" points="130,-263.62 126.5,-253.62 123,-263.62 130,-263.62"/>
</g>
<!-- ParseResponse -->
<g id="node5" class="node">
<title>ParseResponse</title>
<polygon fill="none" stroke="black" points="193,-180 60,-180 60,-144 193,-144 193,-180"/>
<text text-anchor="middle" x="126.5" y="-156.95" font-family="Times,serif" font-size="14.00">Parse server response</text>
</g>
<!-- POSTFile&#45;&gt;ParseResponse -->
<g id="edge4" class="edge">
<title>POSTFile&#45;&gt;ParseResponse</title>
<path fill="none" stroke="black" d="M126.5,-215.7C126.5,-208.41 126.5,-199.73 126.5,-191.54"/>
<polygon fill="black" stroke="black" points="130,-191.62 126.5,-181.62 123,-191.62 130,-191.62"/>
</g>
<!-- ReturnStatus -->
<g id="node6" class="node">
<title>ReturnStatus</title>
<polygon fill="none" stroke="black" points="253,-108 0,-108 0,-72 253,-72 253,-108"/>
<text text-anchor="middle" x="126.5" y="-84.95" font-family="Times,serif" font-size="14.00">Return upload_status and upload_img_path</text>
</g>
<!-- ParseResponse&#45;&gt;ReturnStatus -->
<g id="edge5" class="edge">
<title>ParseResponse&#45;&gt;ReturnStatus</title>
<path fill="none" stroke="black" d="M126.5,-143.7C126.5,-136.41 126.5,-127.73 126.5,-119.54"/>
<polygon fill="black" stroke="black" points="130,-119.62 126.5,-109.62 123,-119.62 130,-119.62"/>
</g>
<!-- End -->
<g id="node7" class="node">
<title>End</title>
<ellipse fill="none" stroke="black" cx="126.5" cy="-18" rx="27" ry="18"/>
<text text-anchor="middle" x="126.5" y="-12.95" font-family="Times,serif" font-size="14.00">End</text>
</g>
<!-- ReturnStatus&#45;&gt;End -->
<g id="edge6" class="edge">
<title>ReturnStatus&#45;&gt;End</title>
<path fill="none" stroke="black" d="M126.5,-71.7C126.5,-64.41 126.5,-55.73 126.5,-47.54"/>
<polygon fill="black" stroke="black" points="130,-47.62 126.5,-37.62 123,-47.62 130,-47.62"/>
</g>
</g>
</svg>
