<?xml version="1.0" encoding="UTF-8" standalone="no"?>
<!DOCTYPE svg PUBLIC "-//W3C//DTD SVG 1.1//EN"
 "http://www.w3.org/Graphics/SVG/1.1/DTD/svg11.dtd">
<!-- Generated by graphviz version 12.2.0 (20241103.1931)
 -->
<!-- Pages: 1 -->
<svg width="390pt" height="606pt"
 viewBox="0.00 0.00 389.54 605.50" xmlns="http://www.w3.org/2000/svg" xmlns:xlink="http://www.w3.org/1999/xlink">
<g id="graph0" class="graph" transform="scale(1 1) rotate(0) translate(4 601.5)">
<polygon fill="white" stroke="none" points="-4,4 -4,-601.5 385.54,-601.5 385.54,4 -4,4"/>
<!-- Start -->
<g id="node1" class="node">
<title>Start</title>
<ellipse fill="none" stroke="black" cx="274.9" cy="-579.5" rx="28.32" ry="18"/>
<text text-anchor="middle" x="274.9" y="-574.45" font-family="Times,serif" font-size="14.00">Start</text>
</g>
<!-- Loop -->
<g id="node2" class="node">
<title>Loop</title>
<polygon fill="none" stroke="black" points="274.9,-524.5 168.26,-506.5 274.9,-488.5 381.54,-506.5 274.9,-524.5"/>
<text text-anchor="middle" x="274.9" y="-501.45" font-family="Times,serif" font-size="14.00">Loop indefinitely</text>
</g>
<!-- Start&#45;&gt;Loop -->
<g id="edge1" class="edge">
<title>Start&#45;&gt;Loop</title>
<path fill="none" stroke="black" d="M274.9,-561.31C274.9,-553.73 274.9,-544.6 274.9,-536.04"/>
<polygon fill="black" stroke="black" points="278.4,-536.04 274.9,-526.04 271.4,-536.04 278.4,-536.04"/>
</g>
<!-- GetStatus -->
<g id="node3" class="node">
<title>GetStatus</title>
<polygon fill="none" stroke="black" points="285.77,-451.5 146.02,-451.5 146.02,-415.5 285.77,-415.5 285.77,-451.5"/>
<text text-anchor="middle" x="215.9" y="-428.45" font-family="Times,serif" font-size="14.00">Call get_UAV_status()</text>
</g>
<!-- Loop&#45;&gt;GetStatus -->
<g id="edge2" class="edge">
<title>Loop&#45;&gt;GetStatus</title>
<path fill="none" stroke="black" d="M262.39,-490.44C255.19,-481.78 245.94,-470.65 237.59,-460.6"/>
<polygon fill="black" stroke="black" points="240.31,-458.4 231.23,-452.95 234.93,-462.88 240.31,-458.4"/>
</g>
<!-- ExtractURL -->
<g id="node4" class="node">
<title>ExtractURL</title>
<polygon fill="none" stroke="black" points="286.77,-378.5 63.02,-378.5 63.02,-342.5 286.77,-342.5 286.77,-378.5"/>
<text text-anchor="middle" x="174.9" y="-355.45" font-family="Times,serif" font-size="14.00">Extract rtmpSubUrl from UAV_status</text>
</g>
<!-- GetStatus&#45;&gt;ExtractURL -->
<g id="edge3" class="edge">
<title>GetStatus&#45;&gt;ExtractURL</title>
<path fill="none" stroke="black" d="M205.97,-415.31C201.29,-407.2 195.59,-397.34 190.36,-388.28"/>
<polygon fill="black" stroke="black" points="193.52,-386.75 185.49,-379.84 187.46,-390.25 193.52,-386.75"/>
</g>
<!-- URLAvailable -->
<g id="node5" class="node">
<title>URLAvailable</title>
<polygon fill="none" stroke="black" points="147.9,-305.5 0,-287.5 147.9,-269.5 295.8,-287.5 147.9,-305.5"/>
<text text-anchor="middle" x="147.9" y="-282.45" font-family="Times,serif" font-size="14.00">Is rtmpSubUrl available?</text>
</g>
<!-- ExtractURL&#45;&gt;URLAvailable -->
<g id="edge4" class="edge">
<title>ExtractURL&#45;&gt;URLAvailable</title>
<path fill="none" stroke="black" d="M168.36,-342.31C165.33,-334.35 161.66,-324.69 158.27,-315.77"/>
<polygon fill="black" stroke="black" points="161.55,-314.56 154.73,-306.45 155.01,-317.05 161.55,-314.56"/>
</g>
<!-- StreamAvailable -->
<g id="node6" class="node">
<title>StreamAvailable</title>
<polygon fill="none" stroke="black" points="192.15,-217 33.65,-217 33.65,-181 192.15,-181 192.15,-217"/>
<text text-anchor="middle" x="112.9" y="-193.95" font-family="Times,serif" font-size="14.00">RTMP stream is available</text>
</g>
<!-- URLAvailable&#45;&gt;StreamAvailable -->
<g id="edge5" class="edge">
<title>URLAvailable&#45;&gt;StreamAvailable</title>
<path fill="none" stroke="black" d="M141.15,-269.82C136.32,-257.89 129.71,-241.55 124.1,-227.68"/>
<polygon fill="black" stroke="black" points="127.43,-226.58 120.43,-218.62 120.94,-229.2 127.43,-226.58"/>
<text text-anchor="middle" x="143.66" y="-238.2" font-family="Times,serif" font-size="14.00">Yes</text>
</g>
<!-- StreamNotAvailable -->
<g id="node9" class="node">
<title>StreamNotAvailable</title>
<polygon fill="none" stroke="black" points="308.65,-163 129.15,-163 129.15,-127 308.65,-127 308.65,-163"/>
<text text-anchor="middle" x="218.9" y="-139.95" font-family="Times,serif" font-size="14.00">RTMP stream is not available</text>
</g>
<!-- URLAvailable&#45;&gt;StreamNotAvailable -->
<g id="edge6" class="edge">
<title>URLAvailable&#45;&gt;StreamNotAvailable</title>
<path fill="none" stroke="black" d="M162.78,-270.9C174.72,-257.56 191.07,-237.36 200.9,-217 207.36,-203.63 211.67,-187.68 214.45,-174.29"/>
<polygon fill="black" stroke="black" points="217.82,-175.27 216.23,-164.8 210.94,-173.98 217.82,-175.27"/>
<text text-anchor="middle" x="198.1" y="-238.2" font-family="Times,serif" font-size="14.00">No</text>
</g>
<!-- Detect -->
<g id="node7" class="node">
<title>Detect</title>
<polygon fill="none" stroke="black" points="190.27,-109 41.52,-109 41.52,-73 190.27,-73 190.27,-109"/>
<text text-anchor="middle" x="115.9" y="-85.95" font-family="Times,serif" font-size="14.00">Call detect(UAV_status)</text>
</g>
<!-- StreamAvailable&#45;&gt;Detect -->
<g id="edge7" class="edge">
<title>StreamAvailable&#45;&gt;Detect</title>
<path fill="none" stroke="black" d="M113.38,-180.97C113.84,-164.76 114.54,-140.06 115.08,-120.79"/>
<polygon fill="black" stroke="black" points="118.58,-120.95 115.36,-110.85 111.58,-120.75 118.58,-120.95"/>
</g>
<!-- Sleep60 -->
<g id="node8" class="node">
<title>Sleep60</title>
<polygon fill="none" stroke="black" points="283.52,-36 154.27,-36 154.27,0 283.52,0 283.52,-36"/>
<text text-anchor="middle" x="218.9" y="-12.95" font-family="Times,serif" font-size="14.00">Sleep for 60 seconds</text>
</g>
<!-- Detect&#45;&gt;Sleep60 -->
<g id="edge8" class="edge">
<title>Detect&#45;&gt;Sleep60</title>
<path fill="none" stroke="black" d="M141.09,-72.63C154.06,-63.69 170.07,-52.66 184.19,-42.92"/>
<polygon fill="black" stroke="black" points="186.11,-45.85 192.36,-37.29 182.14,-40.09 186.11,-45.85"/>
</g>
<!-- Sleep60&#45;&gt;Loop -->
<g id="edge10" class="edge">
<title>Sleep60&#45;&gt;Loop</title>
<path fill="none" stroke="black" d="M278.45,-36.43C302.15,-47.36 323.9,-64.36 323.9,-90 323.9,-434.5 323.9,-434.5 323.9,-434.5 323.9,-453 312.49,-470.17 300.69,-482.99"/>
<polygon fill="black" stroke="black" points="298.23,-480.51 293.66,-490.07 303.19,-485.44 298.23,-480.51"/>
</g>
<!-- StreamNotAvailable&#45;&gt;Sleep60 -->
<g id="edge9" class="edge">
<title>StreamNotAvailable&#45;&gt;Sleep60</title>
<path fill="none" stroke="black" d="M218.9,-126.62C218.9,-106.19 218.9,-71.99 218.9,-47.62"/>
<polygon fill="black" stroke="black" points="222.4,-47.75 218.9,-37.75 215.4,-47.75 222.4,-47.75"/>
</g>
<!-- End -->
<g id="node10" class="node">
<title>End</title>
<ellipse fill="none" stroke="black" cx="347.9" cy="-579.5" rx="27" ry="18"/>
<text text-anchor="middle" x="347.9" y="-574.45" font-family="Times,serif" font-size="14.00">End</text>
</g>
</g>
</svg>
