<svg aria-roledescription="er" role="graphics-document document" viewBox="0 0 656.1888427734375 320" style="max-width: 100%;" xmlns="http://www.w3.org/2000/svg" width="100%" id="graph-div" height="100%" xmlns:xlink="http://www.w3.org/1999/xlink"><style>@import url("https://cdnjs.cloudflare.com/ajax/libs/font-awesome/6.5.1/css/all.min.css");'</style><style>#graph-div{font-family:"trebuchet ms",verdana,arial,sans-serif;font-size:16px;fill:#333;}#graph-div .error-icon{fill:#552222;}#graph-div .error-text{fill:#552222;stroke:#552222;}#graph-div .edge-thickness-normal{stroke-width:2px;}#graph-div .edge-thickness-thick{stroke-width:3.5px;}#graph-div .edge-pattern-solid{stroke-dasharray:0;}#graph-div .edge-pattern-dashed{stroke-dasharray:3;}#graph-div .edge-pattern-dotted{stroke-dasharray:2;}#graph-div .marker{fill:#333333;stroke:#333333;}#graph-div .marker.cross{stroke:#333333;}#graph-div svg{font-family:"trebuchet ms",verdana,arial,sans-serif;font-size:16px;}#graph-div .entityBox{fill:#ECECFF;stroke:#9370DB;}#graph-div .attributeBoxOdd{fill:#ffffff;stroke:#9370DB;}#graph-div .attributeBoxEven{fill:#f2f2f2;stroke:#9370DB;}#graph-div .relationshipLabelBox{fill:hsl(80, 100%, 96.2745098039%);opacity:0.7;background-color:hsl(80, 100%, 96.2745098039%);}#graph-div .relationshipLabelBox rect{opacity:0.5;}#graph-div .relationshipLine{stroke:#333333;}#graph-div .entityTitleText{text-anchor:middle;font-size:18px;fill:#333;}#graph-div #MD_PARENT_START{fill:#f5f5f5!important;stroke:#333333!important;stroke-width:1;}#graph-div #MD_PARENT_END{fill:#f5f5f5!important;stroke:#333333!important;stroke-width:1;}#graph-div :root{--mermaid-font-family:"trebuchet ms",verdana,arial,sans-serif;}</style><g></g><defs><marker orient="auto" markerHeight="240" markerWidth="190" refY="7" refX="0" id="MD_PARENT_START"><path d="M 18,7 L9,13 L1,7 L9,1 Z"></path></marker></defs><defs><marker orient="auto" markerHeight="28" markerWidth="20" refY="7" refX="19" id="MD_PARENT_END"><path d="M 18,7 L9,13 L1,7 L9,1 Z"></path></marker></defs><defs><marker orient="auto" markerHeight="18" markerWidth="18" refY="9" refX="0" id="ONLY_ONE_START"><path d="M9,0 L9,18 M15,0 L15,18" fill="none" stroke="gray"></path></marker></defs><defs><marker orient="auto" markerHeight="18" markerWidth="18" refY="9" refX="18" id="ONLY_ONE_END"><path d="M3,0 L3,18 M9,0 L9,18" fill="none" stroke="gray"></path></marker></defs><defs><marker orient="auto" markerHeight="18" markerWidth="30" refY="9" refX="0" id="ZERO_OR_ONE_START"><circle r="6" cy="9" cx="21" fill="white" stroke="gray"></circle><path d="M9,0 L9,18" fill="none" stroke="gray"></path></marker></defs><defs><marker orient="auto" markerHeight="18" markerWidth="30" refY="9" refX="30" id="ZERO_OR_ONE_END"><circle r="6" cy="9" cx="9" fill="white" stroke="gray"></circle><path d="M21,0 L21,18" fill="none" stroke="gray"></path></marker></defs><defs><marker orient="auto" markerHeight="36" markerWidth="45" refY="18" refX="18" id="ONE_OR_MORE_START"><path d="M0,18 Q 18,0 36,18 Q 18,36 0,18 M42,9 L42,27" fill="none" stroke="gray"></path></marker></defs><defs><marker orient="auto" markerHeight="36" markerWidth="45" refY="18" refX="27" id="ONE_OR_MORE_END"><path d="M3,9 L3,27 M9,18 Q27,0 45,18 Q27,36 9,18" fill="none" stroke="gray"></path></marker></defs><defs><marker orient="auto" markerHeight="36" markerWidth="57" refY="18" refX="18" id="ZERO_OR_MORE_START"><circle r="6" cy="18" cx="48" fill="white" stroke="gray"></circle><path d="M0,18 Q18,0 36,18 Q18,36 0,18" fill="none" stroke="gray"></path></marker></defs><defs><marker orient="auto" markerHeight="36" markerWidth="57" refY="18" refX="39" id="ZERO_OR_MORE_END"><circle r="6" cy="18" cx="9" fill="white" stroke="gray"></circle><path d="M21,18 Q39,0 57,18 Q39,36 21,18" fill="none" stroke="gray"></path></marker></defs><path style="stroke: gray; fill: none;" marker-start="url(#ONLY_ONE_START)" marker-end="url(#ZERO_OR_MORE_END)" d="M146.497,110L146.497,118.333C146.497,126.667,146.497,143.333,162.203,160C177.909,176.667,209.321,193.333,225.027,201.667L240.733,210" class="er relationshipLine"></path><path style="stroke: gray; fill: none;" marker-start="url(#ONLY_ONE_START)" marker-end="url(#ZERO_OR_MORE_END)" d="M504.592,99L504.592,109.167C504.592,119.333,504.592,139.667,488.886,158.167C473.18,176.667,441.768,193.333,426.062,201.667L410.356,210" class="er relationshipLine"></path><g transform="translate(20,20 )" id="entity-ProcessSchedulerSimulator-7277a5eb-89cf-529a-9c0d-b47c301ce7e9"><rect height="90" width="252.9944305419922" y="0" x="0" class="er entityBox"></rect><text style="dominant-baseline: middle; text-anchor: middle; font-size: 12px;" transform="translate(126.4972152709961,12)" y="0" x="0" id="text-entity-ProcessSchedulerSimulator-7277a5eb-89cf-529a-9c0d-b47c301ce7e9" class="er entityLabel">Process-Scheduler-Simulator</text><rect height="22" width="36.61909484863281" y="24" x="0" class="er attributeBoxOdd"></rect><text style="dominant-baseline: middle; font-size: 10.2px;" transform="translate(5,35)" y="0" x="0" id="text-entity-ProcessSchedulerSimulator-7277a5eb-89cf-529a-9c0d-b47c301ce7e9-attr-1-type" class="er entityLabel">string</text><rect height="22" width="71.97537231445312" y="24" x="36.61909484863281" class="er attributeBoxOdd"></rect><text style="dominant-baseline: middle; font-size: 10.2px;" transform="translate(41.61909484863281,35)" y="0" x="0" id="text-entity-ProcessSchedulerSimulator-7277a5eb-89cf-529a-9c0d-b47c301ce7e9-attr-1-name" class="er entityLabel">responsibility</text><rect height="22" width="144.39996337890625" y="24" x="108.59446716308594" class="er attributeBoxOdd"></rect><text style="dominant-baseline: middle; font-size: 10.2px;" transform="translate(113.59446716308594,35)" y="0" x="0" id="text-entity-ProcessSchedulerSimulator-7277a5eb-89cf-529a-9c0d-b47c301ce7e9-attr-1-comment" class="er entityLabel">模拟操作系统进程调度</text><rect height="22" width="36.61909484863281" y="46" x="0" class="er attributeBoxEven"></rect><text style="dominant-baseline: middle; font-size: 10.2px;" transform="translate(5,57)" y="0" x="0" id="text-entity-ProcessSchedulerSimulator-7277a5eb-89cf-529a-9c0d-b47c301ce7e9-attr-2-type" class="er entityLabel">string</text><rect height="22" width="71.97537231445312" y="46" x="36.61909484863281" class="er attributeBoxEven"></rect><text style="dominant-baseline: middle; font-size: 10.2px;" transform="translate(41.61909484863281,57)" y="0" x="0" id="text-entity-ProcessSchedulerSimulator-7277a5eb-89cf-529a-9c0d-b47c301ce7e9-attr-2-name" class="er entityLabel">features</text><rect height="22" width="144.39996337890625" y="46" x="108.59446716308594" class="er attributeBoxEven"></rect><text style="dominant-baseline: middle; font-size: 10.2px;" transform="translate(113.59446716308594,57)" y="0" x="0" id="text-entity-ProcessSchedulerSimulator-7277a5eb-89cf-529a-9c0d-b47c301ce7e9-attr-2-comment" class="er entityLabel">进程创建、执行、等待、终止</text><rect height="22" width="36.61909484863281" y="68" x="0" class="er attributeBoxOdd"></rect><text style="dominant-baseline: middle; font-size: 10.2px;" transform="translate(5,79)" y="0" x="0" id="text-entity-ProcessSchedulerSimulator-7277a5eb-89cf-529a-9c0d-b47c301ce7e9-attr-3-type" class="er entityLabel">string</text><rect height="22" width="71.97537231445312" y="68" x="36.61909484863281" class="er attributeBoxOdd"></rect><text style="dominant-baseline: middle; font-size: 10.2px;" transform="translate(41.61909484863281,79)" y="0" x="0" id="text-entity-ProcessSchedulerSimulator-7277a5eb-89cf-529a-9c0d-b47c301ce7e9-attr-3-name" class="er entityLabel">algorithms</text><rect height="22" width="144.39996337890625" y="68" x="108.59446716308594" class="er attributeBoxOdd"></rect><text style="dominant-baseline: middle; font-size: 10.2px;" transform="translate(113.59446716308594,79)" y="0" x="0" id="text-entity-ProcessSchedulerSimulator-7277a5eb-89cf-529a-9c0d-b47c301ce7e9-attr-3-comment" class="er entityLabel">FCFS, SJF 等</text></g><g transform="translate(183.74721908569336,210 )" id="entity-GUI-9712b08c-7569-5ce9-b01f-702b4e16dcbe"><rect height="90" width="283.59442138671875" y="0" x="0" class="er entityBox"></rect><text style="dominant-baseline: middle; text-anchor: middle; font-size: 12px;" transform="translate(141.79721069335938,12)" y="0" x="0" id="text-entity-GUI-9712b08c-7569-5ce9-b01f-702b4e16dcbe" class="er entityLabel">GUI</text><rect height="22" width="36.61909484863281" y="24" x="0" class="er attributeBoxOdd"></rect><text style="dominant-baseline: middle; font-size: 10.2px;" transform="translate(5,35)" y="0" x="0" id="text-entity-GUI-9712b08c-7569-5ce9-b01f-702b4e16dcbe-attr-1-type" class="er entityLabel">string</text><rect height="22" width="71.97537231445312" y="24" x="36.61909484863281" class="er attributeBoxOdd"></rect><text style="dominant-baseline: middle; font-size: 10.2px;" transform="translate(41.61909484863281,35)" y="0" x="0" id="text-entity-GUI-9712b08c-7569-5ce9-b01f-702b4e16dcbe-attr-1-name" class="er entityLabel">responsibility</text><rect height="22" width="174.9999542236328" y="24" x="108.59446716308594" class="er attributeBoxOdd"></rect><text style="dominant-baseline: middle; font-size: 10.2px;" transform="translate(113.59446716308594,35)" y="0" x="0" id="text-entity-GUI-9712b08c-7569-5ce9-b01f-702b4e16dcbe-attr-1-comment" class="er entityLabel">提供用户界面</text><rect height="22" width="36.61909484863281" y="46" x="0" class="er attributeBoxEven"></rect><text style="dominant-baseline: middle; font-size: 10.2px;" transform="translate(5,57)" y="0" x="0" id="text-entity-GUI-9712b08c-7569-5ce9-b01f-702b4e16dcbe-attr-2-type" class="er entityLabel">string</text><rect height="22" width="71.97537231445312" y="46" x="36.61909484863281" class="er attributeBoxEven"></rect><text style="dominant-baseline: middle; font-size: 10.2px;" transform="translate(41.61909484863281,57)" y="0" x="0" id="text-entity-GUI-9712b08c-7569-5ce9-b01f-702b4e16dcbe-attr-2-name" class="er entityLabel">features</text><rect height="22" width="174.9999542236328" y="46" x="108.59446716308594" class="er attributeBoxEven"></rect><text style="dominant-baseline: middle; font-size: 10.2px;" transform="translate(113.59446716308594,57)" y="0" x="0" id="text-entity-GUI-9712b08c-7569-5ce9-b01f-702b4e16dcbe-attr-2-comment" class="er entityLabel">显示系统状态、进程列表、资源分配</text><rect height="22" width="36.61909484863281" y="68" x="0" class="er attributeBoxOdd"></rect><text style="dominant-baseline: middle; font-size: 10.2px;" transform="translate(5,79)" y="0" x="0" id="text-entity-GUI-9712b08c-7569-5ce9-b01f-702b4e16dcbe-attr-3-type" class="er entityLabel">string</text><rect height="22" width="71.97537231445312" y="68" x="36.61909484863281" class="er attributeBoxOdd"></rect><text style="dominant-baseline: middle; font-size: 10.2px;" transform="translate(41.61909484863281,79)" y="0" x="0" id="text-entity-GUI-9712b08c-7569-5ce9-b01f-702b4e16dcbe-attr-3-name" class="er entityLabel">actions</text><rect height="22" width="174.9999542236328" y="68" x="108.59446716308594" class="er attributeBoxOdd"></rect><text style="dominant-baseline: middle; font-size: 10.2px;" transform="translate(113.59446716308594,79)" y="0" x="0" id="text-entity-GUI-9712b08c-7569-5ce9-b01f-702b4e16dcbe-attr-3-comment" class="er entityLabel">允许用户配置仿真参数</text></g><g transform="translate(372.9944305419922,31 )" id="entity-BankersAlgorithmSimulator-8cffc151-9eb1-575a-875a-c4921756877f"><rect height="68" width="263.1944274902344" y="0" x="0" class="er entityBox"></rect><text style="dominant-baseline: middle; text-anchor: middle; font-size: 12px;" transform="translate(131.5972137451172,12)" y="0" x="0" id="text-entity-BankersAlgorithmSimulator-8cffc151-9eb1-575a-875a-c4921756877f" class="er entityLabel">Bankers-Algorithm-Simulator</text><rect height="22" width="36.61909484863281" y="24" x="0" class="er attributeBoxOdd"></rect><text style="dominant-baseline: middle; font-size: 10.2px;" transform="translate(5,35)" y="0" x="0" id="text-entity-BankersAlgorithmSimulator-8cffc151-9eb1-575a-875a-c4921756877f-attr-1-type" class="er entityLabel">string</text><rect height="22" width="71.97537231445312" y="24" x="36.61909484863281" class="er attributeBoxOdd"></rect><text style="dominant-baseline: middle; font-size: 10.2px;" transform="translate(41.61909484863281,35)" y="0" x="0" id="text-entity-BankersAlgorithmSimulator-8cffc151-9eb1-575a-875a-c4921756877f-attr-1-name" class="er entityLabel">responsibility</text><rect height="22" width="154.59996032714844" y="24" x="108.59446716308594" class="er attributeBoxOdd"></rect><text style="dominant-baseline: middle; font-size: 10.2px;" transform="translate(113.59446716308594,35)" y="0" x="0" id="text-entity-BankersAlgorithmSimulator-8cffc151-9eb1-575a-875a-c4921756877f-attr-1-comment" class="er entityLabel">模拟死锁避免</text><rect height="22" width="36.61909484863281" y="46" x="0" class="er attributeBoxEven"></rect><text style="dominant-baseline: middle; font-size: 10.2px;" transform="translate(5,57)" y="0" x="0" id="text-entity-BankersAlgorithmSimulator-8cffc151-9eb1-575a-875a-c4921756877f-attr-2-type" class="er entityLabel">string</text><rect height="22" width="71.97537231445312" y="46" x="36.61909484863281" class="er attributeBoxEven"></rect><text style="dominant-baseline: middle; font-size: 10.2px;" transform="translate(41.61909484863281,57)" y="0" x="0" id="text-entity-BankersAlgorithmSimulator-8cffc151-9eb1-575a-875a-c4921756877f-attr-2-name" class="er entityLabel">features</text><rect height="22" width="154.59996032714844" y="46" x="108.59446716308594" class="er attributeBoxEven"></rect><text style="dominant-baseline: middle; font-size: 10.2px;" transform="translate(113.59446716308594,57)" y="0" x="0" id="text-entity-BankersAlgorithmSimulator-8cffc151-9eb1-575a-875a-c4921756877f-attr-2-comment" class="er entityLabel">管理系统资源，检测和预防死锁</text></g><rect height="14" width="78.208984375" y="165.8409423828125" x="137.96546936035156" class="er relationshipLabelBox"></rect><text style="text-anchor: middle; dominant-baseline: middle; font-size: 12px;" y="172.8409423828125" x="177.06996154785156" id="rel11" class="er relationshipLabel">interacts_with</text><rect height="14" width="78.208984375" y="162.2437286376953" x="438.42852783203125" class="er relationshipLabelBox"></rect><text style="text-anchor: middle; dominant-baseline: middle; font-size: 12px;" y="169.2437286376953" x="477.53302001953125" id="rel12" class="er relationshipLabel">interacts_with</text></svg>